<svg version="1.1" id="Layer_1" xmlns="http://www.w3.org/2000/svg" xmlns:xlink="http://www.w3.org/1999/xlink" x="0px" y="0px"
	 width="100%" viewBox="0 0 1024 1024" enable-background="new 0 0 1024 1024" xml:space="preserve">
<path fill="#000000" opacity="1.000000" stroke="none" 
	d="
M152.586975,514.439209 
	C155.789246,497.689545 153.537476,481.480621 151.210907,465.335114 
	C150.353973,459.388428 149.622589,453.740143 150.473312,447.602386 
	C151.512482,440.105072 150.139465,432.339142 151.917999,424.774261 
	C153.109756,419.705078 154.660812,414.826172 157.628586,410.483887 
	C160.833282,405.794922 165.712479,404.323425 170.652100,407.066406 
	C179.167618,411.795044 188.300888,415.409607 194.860321,423.390167 
	C198.320770,427.600281 203.872864,429.159149 209.479263,426.626099 
	C216.944550,423.253204 225.644821,422.414764 231.301498,415.311646 
	C235.746399,409.730225 239.401443,403.959839 240.132645,396.664917 
	C240.477036,393.228943 241.682343,390.261902 245.172379,388.624084 
	C248.577667,387.026062 248.901855,383.791931 248.898926,380.519623 
	C248.888062,368.356873 248.732605,356.192352 248.889221,344.031830 
	C249.055511,331.121429 252.291901,319.034851 259.219330,308.002930 
	C262.639160,302.556885 264.188354,295.979736 269.400024,291.588196 
	C270.664337,290.522827 270.915924,288.648407 270.772980,286.923157 
	C270.690674,285.929749 270.204742,284.888428 270.389191,283.966431 
	C273.268158,269.578552 261.962097,264.221863 252.925034,258.822906 
	C239.186462,250.615143 236.836136,236.557281 242.019836,222.990662 
	C247.795746,207.874130 260.591858,199.830780 272.661926,190.959625 
	C276.780609,187.932510 281.696442,186.315857 286.680237,186.106766 
	C295.261932,185.746796 302.727448,182.404114 310.274750,178.891953 
	C326.527771,171.328583 341.256165,161.445526 354.977905,149.993027 
	C358.015839,147.457489 360.706116,144.572708 363.836945,142.073578 
	C369.648193,137.434799 376.091187,137.080093 382.992645,136.521164 
	C394.038788,135.626495 405.274170,137.159912 416.134979,133.293488 
	C429.796906,128.429871 444.542938,127.577209 458.204071,122.544281 
	C459.124207,122.205292 460.177734,121.996338 461.147644,122.059364 
	C476.397980,123.050407 488.910614,116.266205 500.719269,107.861481 
	C509.975067,101.273727 520.064880,102.941811 530.137085,104.160233 
	C535.744324,104.838531 541.254761,105.601425 546.984985,105.513954 
	C553.013184,105.421928 559.218567,105.720894 564.837097,109.168083 
	C570.415283,112.590469 577.041687,113.691032 583.267639,115.274925 
	C594.128235,118.037888 603.762939,123.233345 613.073364,128.959747 
	C622.380493,134.684174 632.445068,138.586929 642.305969,143.008759 
	C655.353516,148.859558 668.417236,154.685898 681.609253,160.199203 
	C692.817871,164.883575 704.382263,168.740738 714.910034,174.951050 
	C723.520447,180.030350 732.171082,185.082626 739.476990,192.010345 
	C743.277161,195.613892 748.710571,196.810364 752.161133,200.781937 
	C763.963501,214.366760 779.451538,224.106689 790.879517,238.102509 
	C794.722778,242.809433 800.239807,245.649963 805.460876,248.500397 
	C813.711365,253.004852 820.466187,259.426788 827.989075,264.748199 
	C842.898132,275.294403 851.017456,289.254913 854.615417,306.531708 
	C856.377625,314.993317 861.809326,322.344757 862.065857,331.249512 
	C862.471375,345.326721 869.340942,358.229645 869.390625,372.452972 
	C869.405029,376.582947 871.871155,380.678772 873.050842,384.836395 
	C874.709229,390.680969 874.001343,396.765533 874.525940,402.727112 
	C875.356262,412.163605 878.141418,421.497742 876.948608,431.030975 
	C875.894226,439.458313 874.998657,447.879028 874.636780,456.359863 
	C874.629700,456.524841 874.575317,456.687225 874.551453,456.852081 
	C872.785889,469.047302 870.176880,475.284882 863.665283,485.670807 
	C858.122375,494.511658 856.657593,504.585632 855.887268,514.818542 
	C854.860596,528.459045 855.523987,542.128479 854.935852,555.768494 
	C854.500671,565.861145 852.971924,575.642273 845.804688,583.652405 
	C838.176697,592.177490 829.449341,599.288452 819.665771,605.163635 
	C808.948975,611.599304 800.096252,620.032471 792.812317,630.177368 
	C791.365662,632.192200 789.671814,634.099121 787.810547,635.735779 
	C773.610535,648.221558 767.939880,664.596619 764.912842,682.711121 
	C762.432068,697.556335 760.705322,712.686035 753.382446,726.436096 
	C745.793701,740.685181 736.145935,753.245178 724.806335,764.592102 
	C716.650085,772.753601 710.196045,782.296936 702.906555,791.160828 
	C698.835388,796.111267 694.184692,799.969543 688.071716,802.550537 
	C681.841431,805.180908 675.578735,808.047363 670.024475,812.152832 
	C666.900757,814.461731 663.073486,815.368958 659.324707,816.159912 
	C650.963501,817.924194 646.607483,824.006653 644.228027,831.278748 
	C640.523865,842.599304 632.180969,848.279724 620.366943,846.347412 
	C612.391602,845.042969 604.431824,846.598938 597.238159,849.089600 
	C583.676208,853.785095 569.496887,856.243469 556.093201,861.374084 
	C551.606018,863.091675 547.207397,865.002502 542.472046,866.212891 
	C528.174927,869.867371 514.172913,867.115112 500.441040,864.032654 
	C484.810242,860.523926 469.575928,862.657288 455.154083,867.314087 
	C444.409698,870.783447 435.683777,868.531860 426.406525,864.784790 
	C424.393890,863.971863 422.410797,862.666077 420.313782,862.723633 
	C411.348999,862.969543 404.709198,857.633850 398.654663,852.562378 
	C392.217407,847.170410 385.053711,845.581055 377.486298,845.164368 
	C365.117676,844.483276 353.183136,841.226135 340.949524,839.867310 
	C339.828644,839.742737 338.619598,839.315613 337.695892,838.676025 
	C322.722046,828.307068 305.694427,821.640747 290.199921,812.166931 
	C271.117645,800.499390 260.231689,784.066284 257.686523,761.810242 
	C256.041443,747.424988 251.177780,734.572998 242.512039,722.321228 
	C229.991653,704.619751 213.903122,692.058105 195.535019,681.487488 
	C181.064301,673.159729 171.880508,660.229309 166.216751,644.758118 
	C162.502335,634.611755 158.997345,624.380066 155.748016,614.076416 
	C154.458466,609.987183 154.312775,605.552124 153.302643,601.357300 
	C149.748215,586.596375 147.317581,571.622803 146.431931,556.512451 
	C145.772659,545.264038 145.949997,533.875061 150.368881,523.072083 
	C151.429932,520.478027 151.798782,517.600952 152.586975,514.439209 
M275.359009,626.048523 
	C275.960632,634.846863 280.501709,641.073792 288.243317,644.853577 
	C295.871429,648.578003 303.827728,651.637817 311.410217,655.446838 
	C342.213654,670.920837 372.961517,686.506531 403.667206,702.173828 
	C434.522644,717.917542 465.100128,734.202332 496.263550,749.348694 
	C504.375122,753.291199 512.094055,753.980225 520.119507,749.674500 
	C521.878601,748.730713 523.762207,748.018372 525.518738,747.070374 
	C553.667847,731.878601 582.611694,718.267151 611.272339,704.100220 
	C649.339111,685.283936 687.014343,665.667969 725.620667,647.946167 
	C738.739502,641.924194 744.875854,631.895020 744.828552,617.061829 
	C744.552307,530.413574 744.592285,443.763763 744.792480,357.115112 
	C744.818298,345.918335 740.168701,338.339264 730.627441,333.351410 
	C721.625366,328.645416 712.492188,324.190796 703.468323,319.525757 
	C661.298767,297.725311 619.221130,275.745575 576.953857,254.136490 
	C559.165710,245.042328 542.003967,234.727783 523.633240,226.766418 
	C515.828979,223.384247 508.134369,222.486130 499.985046,225.961288 
	C491.405823,229.619751 482.801575,233.210327 474.477539,237.413376 
	C445.193604,252.199661 415.955902,267.077454 386.682159,281.883911 
	C354.137085,298.345032 321.602844,314.828156 288.995728,331.165680 
	C279.558594,335.894104 275.424500,343.656677 275.365479,353.742645 
	C275.139404,392.385925 274.960724,431.030273 274.976746,469.674103 
	C274.998199,521.494629 275.216675,573.315002 275.359009,626.048523 
z"/>
<path fill="#000000" opacity="1.000000" stroke="none" 
	d="
M349.101624,642.982788 
	C335.207245,636.045166 321.680481,629.215393 308.093384,622.507935 
	C303.818207,620.397339 303.808899,616.664185 303.661469,612.745789 
	C302.445404,580.428650 302.959381,548.099243 302.936768,515.774475 
	C302.900604,464.111542 302.999817,412.448517 302.901093,360.785767 
	C302.893402,356.765656 304.708038,354.707001 307.936066,353.075989 
	C329.041901,342.411469 350.116486,331.685181 371.213715,321.003632 
	C396.767151,308.065918 422.334991,295.156708 447.892639,282.227295 
	C467.500031,272.308075 487.113403,262.400482 506.692841,252.426392 
	C509.779114,250.854218 512.520691,250.818848 515.646057,252.531677 
	C554.356384,273.746399 593.494080,294.162811 632.800171,314.238525 
	C657.415405,326.810791 682.124390,339.196655 706.649658,351.949738 
	C713.556580,355.541290 716.707397,359.362000 716.645935,368.125671 
	C716.104980,445.285736 716.295105,522.451172 716.370117,599.614929 
	C716.375977,605.634216 715.611938,611.568298 715.354553,617.548828 
	C715.270630,619.498535 714.257507,620.317139 712.689453,621.285156 
	C688.512878,636.209534 661.652283,645.677917 636.606323,658.843323 
	C596.218079,680.073303 554.622314,698.953308 514.789185,721.268860 
	C510.990509,723.396912 507.567108,723.701355 503.520569,721.582031 
	C471.792267,704.964783 440.003571,688.462097 408.181030,672.025696 
	C388.793854,662.012085 369.278015,652.251160 349.101624,642.982788 
M582.544189,354.983093 
	C571.646912,346.935425 560.190979,340.154938 547.115479,335.916077 
	C520.498230,327.287140 494.038513,326.912567 467.904022,336.864349 
	C444.927185,345.613678 425.591705,359.781891 409.929504,378.897095 
	C387.863403,405.828064 375.277832,436.387146 375.546631,471.414764 
	C375.647186,484.519592 378.769318,497.316254 390.040955,506.156891 
	C396.602417,511.303253 403.593781,515.748596 411.224182,519.263672 
	C423.016968,524.696106 435.516174,527.118225 448.195557,529.215454 
	C452.501953,529.927795 454.269897,528.022339 453.983337,524.758728 
	C453.589508,520.274109 459.633087,514.825684 452.300110,511.309540 
	C451.272919,510.816986 450.062378,510.611115 448.913391,510.484650 
	C443.589233,509.898560 438.539673,508.153290 433.366699,506.927124 
	C421.101318,504.019836 410.204926,499.013550 402.053101,488.796692 
	C395.735687,480.879028 396.169189,476.328247 405.013489,471.187958 
	C408.017761,469.441833 411.321960,468.208435 414.500916,466.766815 
	C427.352448,460.938934 441.029327,458.214630 454.857605,456.073334 
	C471.426392,453.507660 487.833862,449.830475 504.733154,449.659027 
	C533.547302,449.366760 561.667847,454.415314 589.652222,460.445068 
	C599.301086,462.524109 608.431702,466.305450 616.804993,471.564117 
	C624.542480,476.423462 624.836182,478.915375 619.959778,486.381378 
	C617.354919,490.369629 613.956482,493.478149 610.216064,496.301483 
	C599.546936,504.354706 586.886719,507.422546 574.282349,510.586182 
	C564.220642,513.111633 564.203796,513.044434 566.122681,523.540283 
	C567.390747,530.476501 567.599670,530.369812 574.634949,529.429443 
	C586.489502,527.844971 597.600403,523.903931 608.368774,519.032471 
	C618.930969,514.254211 628.431763,507.890839 635.408875,498.281677 
	C646.059509,483.613434 646.482361,467.228180 642.974670,450.490906 
	C634.795288,411.461456 614.826355,379.693634 582.544189,354.983093 
M557.336426,587.955322 
	C549.940308,551.126587 544.020874,514.048279 538.704956,476.872101 
	C538.117371,472.763458 536.473145,470.830902 532.185608,470.297485 
	C516.391785,468.332611 500.641296,468.925629 484.871124,470.363251 
	C482.093323,470.616455 480.706604,472.071930 480.417694,474.800537 
	C479.088104,487.359192 476.610046,499.725128 474.363159,512.141235 
	C469.545929,538.760864 464.977264,565.428162 460.634430,592.129211 
	C459.308746,600.279968 457.215576,608.518494 458.732880,616.871521 
	C462.799316,639.258118 476.314545,652.415527 498.180267,658.254089 
	C527.281738,666.024780 550.459351,646.436096 557.006714,626.988708 
	C561.392273,613.962524 560.548523,601.561462 557.336426,587.955322 
M430.921875,577.356262 
	C443.264160,571.311707 443.265259,571.311890 445.559662,557.811340 
	C445.643097,557.320435 445.675842,556.819580 445.711060,556.321960 
	C445.887726,553.823914 447.705200,550.702820 444.147827,549.348389 
	C439.795563,547.691406 436.384918,543.026367 430.530731,546.002930 
	C405.182434,558.891296 379.661072,571.438843 354.281403,584.266113 
	C344.188995,589.366943 333.594788,593.476074 323.925262,599.391235 
	C319.228668,602.264282 319.214996,604.407959 323.650421,607.533630 
	C328.152039,610.705933 332.769806,613.840210 336.283508,618.030884 
	C339.324860,621.658203 342.041779,621.264099 345.694550,619.450745 
	C373.851440,605.472778 402.061340,591.601624 430.921875,577.356262 
M610.796570,557.744690 
	C603.378296,554.369080 595.984497,550.938171 588.530273,547.643921 
	C585.350647,546.238708 575.974426,548.547607 573.775146,551.069702 
	C572.959595,552.004944 572.669312,553.068787 572.861694,554.305237 
	C573.575378,558.890625 574.355347,563.468628 574.922791,568.072571 
	C575.264160,570.842407 576.573486,572.259216 579.179993,573.484863 
	C593.476807,580.207520 607.669617,587.154968 621.835022,594.152954 
	C639.279663,602.770752 656.682129,611.474915 674.053467,620.239563 
	C677.128601,621.791199 679.456177,621.815430 681.954102,619.059998 
	C686.102844,614.483582 690.992065,610.727051 696.288940,607.511230 
	C697.669617,606.673096 699.235840,605.856506 699.373108,602.889221 
	C670.936707,586.828918 640.698181,573.419861 610.796570,557.744690 
M508.190887,275.609802 
	C505.915680,276.088409 503.648743,276.611938 501.363068,277.033875 
	C498.707458,277.524139 497.240814,278.883606 497.274384,281.756409 
	C497.356110,288.750000 497.323639,295.744843 497.372711,302.738922 
	C497.390717,305.304901 498.542328,306.794983 501.319672,306.751678 
	C506.647888,306.668549 511.977600,306.681152 517.305786,306.596405 
	C520.582825,306.544281 522.071838,304.870331 521.976807,301.530548 
	C521.806396,295.538300 521.793518,289.541351 521.734436,283.546173 
	C521.662781,276.273193 520.685120,275.213623 513.511230,275.012115 
	C512.027222,274.970428 510.533966,275.257141 508.190887,275.609802 
M418.407928,486.975250 
	C420.010986,491.962097 424.338776,492.342194 428.464905,492.604065 
	C435.303467,493.038147 442.008179,491.498657 448.771362,490.777588 
	C457.383667,489.859375 457.396210,489.976593 459.799255,481.984985 
	C461.441010,476.525116 460.070862,474.395569 454.386047,474.442627 
	C448.912659,474.487915 443.447083,475.153534 437.971283,475.311188 
	C431.984222,475.483612 426.673950,477.875519 421.308929,480.064331 
	C418.678741,481.137390 417.729309,483.389252 418.407928,486.975250 
M579.805725,475.692047 
	C575.825439,475.562073 571.840210,475.516235 567.865845,475.284088 
	C560.391663,474.847595 559.232422,476.111237 560.925110,483.733459 
	C561.432251,486.017212 560.431091,489.329712 564.633301,489.681915 
	C571.576294,490.263794 578.481323,491.289520 585.421265,491.920563 
	C587.704102,492.128143 590.160339,492.091278 592.334778,491.464111 
	C596.212952,490.345673 598.371033,487.343201 598.577881,483.359802 
	C598.799500,479.094208 595.096741,479.099274 592.323608,478.416077 
	C588.464111,477.465210 584.542969,476.764313 579.805725,475.692047 
M521.423645,684.469849 
	C520.806580,681.594299 519.192078,680.052551 516.114868,680.648926 
	C511.503876,681.542542 506.860199,681.358643 502.211884,681.193726 
	C500.714569,681.140625 499.221893,681.066833 498.158325,682.492615 
	C496.456238,684.774353 497.131836,698.099609 499.103210,700.359558 
	C502.390472,704.127991 509.150482,705.989136 513.513550,704.327026 
	C520.913818,701.507874 521.757019,700.278198 521.701843,692.269226 
	C521.685852,689.945068 521.611694,687.621399 521.423645,684.469849 
z"/>
<path fill="#000000" opacity="1.000000" stroke="none" 
	d="
M493.064392,424.128601 
	C481.973785,416.375977 477.574860,406.026886 480.042603,393.160736 
	C482.398254,380.879120 496.170105,371.472107 509.389648,372.934601 
	C517.114807,373.789307 525.082031,374.331604 530.815552,380.841278 
	C539.532227,390.738037 540.242554,405.814514 532.443665,416.887817 
	C525.300781,427.029694 509.540161,431.274628 497.411774,426.293854 
	C496.030762,425.726685 494.721466,424.984894 493.064392,424.128601 
z"/>
<path fill="#000000" opacity="1.000000" stroke="none" 
	d="
M442.440491,406.888306 
	C445.154907,423.888062 429.789673,438.187988 416.674347,434.555634 
	C409.712677,432.627563 403.574554,424.967163 404.905457,417.311066 
	C405.900909,411.584869 407.750275,405.964233 411.388733,401.245483 
	C415.974518,395.298126 422.256958,393.146698 429.518158,394.221863 
	C436.545868,395.262421 440.633057,399.733246 442.440491,406.888306 
z"/>
<path fill="#000000" opacity="1.000000" stroke="none" 
	d="
M614.622986,423.149414 
	C610.873535,433.220154 601.210144,437.760925 591.565918,434.314850 
	C583.254395,431.345001 575.854553,421.076385 575.799744,412.436707 
	C575.729919,401.414490 587.331726,392.689880 598.001404,395.740936 
	C608.137695,398.639465 616.543213,412.201019 614.622986,423.149414 
z"/>
<path fill="#000000" opacity="1.000000" stroke="none" 
	d="
M477.317749,361.120483 
	C475.600037,372.100220 468.242371,377.555054 459.846649,374.489960 
	C451.518494,371.449585 449.882751,362.481903 456.643433,356.820038 
	C458.567932,355.208374 460.762726,354.027191 463.129059,353.193512 
	C470.678864,350.533722 474.928192,352.792358 477.317749,361.120483 
z"/>
<path fill="#000000" opacity="1.000000" stroke="none" 
	d="
M565.980103,359.229370 
	C567.668457,364.045532 566.404724,367.660645 562.795349,370.604919 
	C558.161804,374.384735 553.013550,374.766815 547.875854,372.250732 
	C543.652893,370.182648 540.822205,366.627197 540.740356,361.636108 
	C540.668457,357.255768 544.340149,353.062134 548.605591,352.749908 
	C555.180298,352.268677 561.067383,354.038422 565.980103,359.229370 
z"/>
</svg>