<?xml version="1.0" encoding="UTF-8"?>
<svg version="1.1" xmlns="http://www.w3.org/2000/svg" width="1024" height="1024">
<path d="M0 0 C0.95441986 -0.00100708 1.90883972 -0.00201416 2.8921814 -0.00305176 C18.6179061 0.00814269 33.94342654 0.77788199 49.5 3.25 C50.4605127 3.39985352 51.42102539 3.54970703 52.41064453 3.70410156 C58.80846753 4.72784018 65.15617653 5.93509406 71.5 7.25 C72.33063965 7.41693359 73.1612793 7.58386719 74.01708984 7.75585938 C94.83581615 12.01006769 115.3706081 19.0079501 134.62890625 27.97265625 C137.29674142 29.26523951 137.29674142 29.26523951 139.45703125 29.71484375 C142.72553135 30.57102829 145.63324999 32.21402938 148.625 33.75 C149.57439453 34.23146484 149.57439453 34.23146484 150.54296875 34.72265625 C152.19692865 35.56192677 153.84861152 36.40568108 155.5 37.25 C156.16 37.58 156.82 37.91 157.5 38.25 C166.40849033 43.44762665 175.1426927 48.88784193 183.77563477 54.53076172 C189.99228814 58.63683972 189.99228814 58.63683972 196.5 62.25 C197.2425 63.00152344 197.985 63.75304687 198.75 64.52734375 C201.51543074 67.26527731 204.37224786 69.50187311 207.5 71.8125 C214.11043702 76.78244611 220.09901609 82.2882157 226.10742188 87.95898438 C227.87495803 89.59761186 229.71239399 91.14319663 231.5625 92.6875 C236.82131795 97.23776143 241.38037186 102.48855111 246.03466797 107.640625 C247.35217213 109.08764056 248.69231601 110.5139652 250.03515625 111.9375 C264.46972122 127.3343693 276.88743846 145.0487423 287.5 163.25 C287.94214844 164.0032959 288.38429688 164.7565918 288.83984375 165.53271484 C308.50086455 199.34674012 326.82463149 242.58830587 316.5 282.25 C310.90343608 301.74697268 297.72940575 315.3462535 280.5 325.25 C264.8998942 333.65325699 250.18616622 333.6992919 232.8684082 333.69824219 C230.34760049 333.7088926 227.82679789 333.72081765 225.30600166 333.7339077 C219.13931709 333.76247079 212.97272974 333.77721429 206.80598909 333.7857394 C199.47153192 333.79654467 192.13715995 333.82386619 184.80274997 333.85143174 C169.75628387 333.90726068 154.70981346 333.94224343 139.66327363 333.97048676 C128.13399718 333.99227462 116.60475211 334.02063831 105.07550049 334.05291748 C19.18212417 334.29131261 -66.70926029 334.31104392 -156.11448336 333.89145851 C-159.6364086 333.87494651 -163.15833568 333.85888929 -166.68026352 333.84294128 C-180.92239999 333.77803695 -195.16445071 333.70363222 -209.40648198 333.61876154 C-212.34397028 333.60178695 -215.28146293 333.5863264 -218.21896172 333.57128525 C-222.71532439 333.54795145 -227.21163116 333.51983143 -231.70793974 333.4877553 C-233.32372163 333.47691249 -234.93951482 333.46761767 -236.55531538 333.46005201 C-244.26132728 333.42283912 -251.85552289 333.31804793 -259.5 332.25 C-259.5 331.59 -259.5 330.93 -259.5 330.25 C-260.52480469 330.10304688 -260.52480469 330.10304688 -261.5703125 329.953125 C-279.57023753 325.63314299 -292.97252158 311.47615922 -302.33984375 296.26171875 C-315.73714593 271.06933627 -312.09233511 243.13646185 -304.22265625 216.92578125 C-301.22458179 207.34488582 -297.46329568 198.15152647 -293.39575195 188.97753906 C-293.02023193 188.12901367 -292.64471191 187.28048828 -292.2578125 186.40625 C-291.9189502 185.65150391 -291.58008789 184.89675781 -291.23095703 184.11914062 C-290.37859777 182.27405796 -290.37859777 182.27405796 -290.5 180.25 C-289.51036187 179.23974441 -288.50894631 178.24097293 -287.5 177.25 C-286.11308382 174.72465678 -284.79292967 172.19733136 -283.5 169.625 C-272.3355289 148.04972874 -257.79715227 128.21328292 -241.5 110.25 C-240.71230225 109.37770752 -240.71230225 109.37770752 -239.90869141 108.48779297 C-225.57474986 92.65342645 -225.57474986 92.65342645 -220.5 88.25 C-219.84 88.25 -219.18 88.25 -218.5 88.25 C-218.005 86.765 -218.005 86.765 -217.5 85.25 C-215.87109375 83.71484375 -215.87109375 83.71484375 -213.9375 82.1875 C-212.0289778 80.72246535 -212.0289778 80.72246535 -210.5 79.25 C-210.5 78.59 -210.5 77.93 -210.5 77.25 C-209.95859375 77.18554688 -209.4171875 77.12109375 -208.859375 77.0546875 C-205.52844076 75.91864039 -203.31791458 73.69223251 -200.75 71.375 C-193.43370982 64.99274887 -185.61550977 59.56104358 -177.5 54.25 C-176.55133057 53.62593262 -176.55133057 53.62593262 -175.58349609 52.98925781 C-132.64865394 24.9297419 -82.56373029 6.76923789 -31.5 1.25 C-30.74058105 1.1571875 -29.98116211 1.064375 -29.19873047 0.96875 C-19.50109541 -0.09213604 -9.74348567 0.0071314 0 0 Z " fill="#246253" transform="translate(450.5,162.75)"/>
<path d="M0 0 C31.74412671 28.83321788 53.2832661 70.32050897 55.62939453 113.47998047 C55.84562689 122.47887184 55.75871487 131.48027996 55.62939453 140.47998047 C54.96939453 140.47998047 54.30939453 140.47998047 53.62939453 140.47998047 C53.62552734 141.50478516 53.62552734 141.50478516 53.62158203 142.55029297 C52.24644632 178.39549729 31.83681552 211.36619738 7.62939453 236.47998047 C6.97841797 237.18251953 6.32744141 237.88505859 5.65673828 238.60888672 C-1.13638496 245.74815637 -9.17991687 252.0195214 -17.37060547 257.47998047 C-17.37060547 258.46998047 -17.37060547 259.45998047 -17.37060547 260.47998047 C-18.69060547 260.47998047 -20.01060547 260.47998047 -21.37060547 260.47998047 C-23.83530992 261.76934543 -26.18326108 263.10506707 -28.55810547 264.54248047 C-42.00670499 272.36498734 -56.29120147 277.72599139 -71.37060547 281.47998047 C-73.25392578 281.96144531 -73.25392578 281.96144531 -75.17529297 282.45263672 C-96.63866299 287.24185137 -123.05513618 286.61794412 -144.37060547 281.47998047 C-145.10263184 281.31369141 -145.8346582 281.14740234 -146.58886719 280.97607422 C-158.48988669 278.22085427 -169.41373901 273.83327517 -180.37060547 268.47998047 C-181.53462891 267.91279297 -182.69865234 267.34560547 -183.89794922 266.76123047 C-197.07290263 259.9901029 -208.29969263 251.18315036 -218.89501953 240.90869141 C-220.25773726 239.58926319 -221.63766588 238.28767288 -223.01904297 236.98779297 C-253.32254771 207.83142405 -268.85993611 166.8604238 -270.49560547 125.30419922 C-271.35306926 78.84038009 -251.84405752 39.23610162 -221.36669922 5.39404297 C-219.37060547 3.47998047 -219.37060547 3.47998047 -217.37060547 3.47998047 C-217.37060547 2.81998047 -217.37060547 2.15998047 -217.37060547 1.47998047 C-191.87196239 -22.69007599 -158.68375554 -35.76294897 -124.37060547 -40.52001953 C-123.43861328 -40.65279297 -122.50662109 -40.78556641 -121.54638672 -40.92236328 C-77.14176598 -46.2802762 -32.84367028 -29.38852011 0 0 Z M-189.16748047 48.52294922 C-191.17029416 51.78077279 -191.67886546 54.69063815 -191.37060547 58.47998047 C-189.0106313 66.73989007 -182.95513105 72.2816708 -176.37060547 77.47998047 C-174.67972325 79.45954989 -173.01230075 81.45943243 -171.37060547 83.47998047 C-169.30893286 85.79416338 -169.30893286 85.79416338 -167.37060547 87.47998047 C-166.71060547 87.47998047 -166.05060547 87.47998047 -165.37060547 87.47998047 C-165.37060547 88.13998047 -165.37060547 88.79998047 -165.37060547 89.47998047 C-164.71060547 89.47998047 -164.05060547 89.47998047 -163.37060547 89.47998047 C-163.37060547 90.13998047 -163.37060547 90.79998047 -163.37060547 91.47998047 C-160.79858503 94.27894389 -158.05961017 96.7680032 -155.12060547 99.16748047 C-152.37060547 101.47998047 -152.37060547 101.47998047 -151.37060547 103.47998047 C-150.71060547 103.47998047 -150.05060547 103.47998047 -149.37060547 103.47998047 C-149.37060547 104.13998047 -149.37060547 104.79998047 -149.37060547 105.47998047 C-147.78323148 107.04646905 -147.78323148 107.04646905 -145.74560547 108.66748047 C-143.00852359 111.02400551 -140.30973099 113.37240375 -137.80810547 115.97998047 C-137.31181641 116.48529297 -136.81552734 116.99060547 -136.30419922 117.51123047 C-134.79107709 120.70208215 -135.60275135 123.10392014 -136.37060547 126.47998047 C-138.33251953 129.12304688 -138.33251953 129.12304688 -140.88623047 131.58154297 C-141.80791016 132.48388672 -142.72958984 133.38623047 -143.67919922 134.31591797 C-144.65928824 135.24600578 -145.63976012 136.1756903 -146.62060547 137.10498047 C-147.5868281 138.04105928 -148.55168587 138.97854907 -149.51513672 139.91748047 C-151.30035616 141.65055859 -153.09168491 143.3773825 -154.89111328 145.09570312 C-158.97744781 149.02511854 -162.95320137 153.06417529 -166.94482422 157.08935547 C-168.64918776 158.80296033 -170.35361657 160.51650029 -172.05810547 162.22998047 C-173.35844727 163.54289062 -173.35844727 163.54289062 -174.68505859 164.88232422 C-175.51328125 165.71376953 -176.34150391 166.54521484 -177.19482422 167.40185547 C-178.32537231 168.54025879 -178.32537231 168.54025879 -179.47875977 169.70166016 C-181.37060547 171.47998047 -181.37060547 171.47998047 -183.37060547 172.47998047 C-183.37060547 173.13998047 -183.37060547 173.79998047 -183.37060547 174.47998047 C-184.36060547 174.80998047 -185.35060547 175.13998047 -186.37060547 175.47998047 C-189.93148308 180.50710181 -191.8207861 185.24176311 -191.37060547 191.47998047 C-189.79720523 196.71847773 -187.15868709 200.71353331 -182.37060547 203.47998047 C-176.68749343 205.53489104 -172.01045845 206.04494788 -166.37060547 203.47998047 C-163.61333393 201.38313463 -161.26066914 198.95379856 -158.86279297 196.46044922 C-158.17428253 195.76486404 -157.48577209 195.06927887 -156.77639771 194.35261536 C-154.58739335 192.13574902 -152.41642243 189.90214499 -150.24560547 187.66748047 C-148.7793247 186.1760977 -147.31188763 184.68585082 -145.84326172 183.19677734 C-143.14315301 180.45594489 -140.44988946 177.70876747 -137.76464844 174.95336914 C-135.74952708 172.88604644 -133.72376484 170.83366836 -131.68139648 168.79296875 C-129.4694782 166.57894721 -127.30824802 164.32586301 -125.15576172 162.05419922 C-123.58190943 160.42493889 -122.0076812 158.79604165 -120.43310547 157.16748047 C-119.64742187 156.33152344 -118.86173828 155.49556641 -118.05224609 154.63427734 C-117.28203125 153.84472656 -116.51181641 153.05517578 -115.71826172 152.24169922 C-115.02740479 151.51942139 -114.33654785 150.79714355 -113.62475586 150.05297852 C-110.70225857 148.01359261 -108.86157117 148.09079006 -105.37060547 148.47998047 C-103.75341797 149.76513672 -103.75341797 149.76513672 -102.49560547 151.54248047 C-100.29993011 154.40089248 -98.06959097 156.72138196 -95.30810547 159.04248047 C-91.91436296 161.9229916 -89.22329267 165.05675582 -86.37060547 168.47998047 C-84.38055916 170.31098619 -82.33913024 172.06941713 -80.28466797 173.82763672 C-76.11525198 177.42694888 -72.50498621 181.40902184 -68.99560547 185.63623047 C-66.88890776 188.0265221 -64.6383941 190.24203116 -62.37060547 192.47998047 C-61.44763672 193.41197266 -60.52466797 194.34396484 -59.57373047 195.30419922 C-52.63481458 202.38047905 -52.63481458 202.38047905 -43.53076172 205.59716797 C-37.76321201 205.284281 -33.73941872 203.70317528 -29.43310547 199.85498047 C-26.59300449 195.2075425 -25.00601365 190.99421668 -25.578125 185.47973633 C-27.59825698 178.00954995 -32.77424724 173.16480154 -38.14892578 167.91943359 C-39.75666095 166.34414813 -41.32948576 164.73892351 -42.90185547 163.12841797 C-43.91816407 162.11606956 -44.93632987 161.10558143 -45.95654297 160.09716797 C-46.87483887 159.18563965 -47.79313477 158.27411133 -48.73925781 157.33496094 C-51.22322821 155.166799 -51.22322821 155.166799 -54.20898438 155.69140625 C-54.92231934 155.95163574 -55.6356543 156.21186523 -56.37060547 156.47998047 C-56.37060547 155.81998047 -56.37060547 155.15998047 -56.37060547 154.47998047 C-55.38060547 154.14998047 -54.39060547 153.81998047 -53.37060547 153.47998047 C-54.51253329 152.33805264 -55.65509784 151.19675662 -56.80029297 150.05810547 C-57.94075579 148.9119687 -59.06947852 147.75411232 -60.19091797 146.58935547 C-60.80708984 145.95513672 -61.42326172 145.32091797 -62.05810547 144.66748047 C-62.63947266 144.06291016 -63.22083984 143.45833984 -63.81982422 142.83544922 C-65.27830439 141.26061323 -65.27830439 141.26061323 -67.37060547 141.47998047 C-67.37060547 140.81998047 -67.37060547 140.15998047 -67.37060547 139.47998047 C-69.63699339 137.0719433 -71.98429216 134.82562922 -74.44873047 132.62060547 C-77.96276455 129.35937959 -80.10812165 127.32269166 -81.55810547 122.66748047 C-81.37060547 119.47998047 -81.37060547 119.47998047 -79.93310547 117.66748047 C-79.15966797 117.07966797 -79.15966797 117.07966797 -78.37060547 116.47998047 C-78.37060547 115.81998047 -78.37060547 115.15998047 -78.37060547 114.47998047 C-77.71060547 114.47998047 -77.05060547 114.47998047 -76.37060547 114.47998047 C-74.80411688 112.89260648 -74.80411688 112.89260648 -73.18310547 110.85498047 C-70.34071839 107.50439112 -67.39211533 104.65651911 -64.01513672 101.85888672 C-61.62910555 99.85824776 -59.47574433 97.77649559 -57.37060547 95.47998047 C-57.37060547 94.81998047 -57.37060547 94.15998047 -57.37060547 93.47998047 C-56.71060547 93.47998047 -56.05060547 93.47998047 -55.37060547 93.47998047 C-54.00883625 91.8364659 -52.68098481 90.16475391 -51.37060547 88.47998047 C-49.72099202 86.79287581 -48.05484556 85.13208149 -46.37060547 83.47998047 C-43.30313276 80.46414749 -40.24190743 77.44210588 -37.18310547 74.41748047 C-36.36390625 73.61503906 -35.54470703 72.81259766 -34.70068359 71.98583984 C-33.91757812 71.20917969 -33.13447266 70.43251953 -32.32763672 69.63232422 C-31.61583252 68.93099365 -30.90402832 68.22966309 -30.1706543 67.50708008 C-26.56752506 63.44946689 -25.91871821 60.08919631 -26.05810547 54.79248047 C-26.76240788 49.58064261 -29.24858451 46.36824706 -33.37060547 43.10498047 C-38.1954764 40.49150872 -42.86931352 39.65772331 -48.37060547 40.47998047 C-53.70466112 42.57262782 -57.05509949 45.79883287 -60.93310547 49.85498047 C-61.48417969 50.41958984 -62.03525391 50.98419922 -62.60302734 51.56591797 C-63.68809634 52.67801716 -64.77076068 53.79246839 -65.85083008 54.90942383 C-69.73390625 58.92224776 -73.67577829 62.6413035 -78.01513672 66.14794922 C-78.46244141 66.58751953 -78.90974609 67.02708984 -79.37060547 67.47998047 C-79.37060547 68.13998047 -79.37060547 68.79998047 -79.37060547 69.47998047 C-80.03060547 69.47998047 -80.69060547 69.47998047 -81.37060547 69.47998047 C-81.37060547 70.13998047 -81.37060547 70.79998047 -81.37060547 71.47998047 C-81.93263672 71.71716797 -82.49466797 71.95435547 -83.07373047 72.19873047 C-85.88954589 73.76945744 -87.85015963 75.69469511 -90.12060547 77.97998047 C-90.91982422 78.77404297 -91.71904297 79.56810547 -92.54248047 80.38623047 C-94.58984156 82.26781509 -94.58984156 82.26781509 -94.37060547 84.47998047 C-94.94681641 84.72619141 -95.52302734 84.97240234 -96.11669922 85.22607422 C-98.72315432 86.6761125 -100.39148886 88.37498383 -102.43310547 90.54248047 C-106.03844378 94.36925991 -106.03844378 94.36925991 -109.37060547 95.47998047 C-111.30810547 94.30029297 -111.30810547 94.30029297 -113.37060547 92.60498047 C-115.827295 90.6042674 -117.32421901 89.49544262 -120.37060547 88.47998047 C-121.0642527 87.16048218 -121.7268423 85.82452173 -122.37060547 84.47998047 C-123.58413393 83.08165648 -124.85365162 81.7310518 -126.15844727 80.41748047 C-126.93653244 79.62986328 -127.71461761 78.84224609 -128.51628113 78.03076172 C-129.35895035 77.18900391 -130.20161957 76.34724609 -131.06982422 75.47998047 C-132.3724395 74.1709375 -132.3724395 74.1709375 -133.70137024 72.83544922 C-136.01119931 70.51840788 -138.32611515 68.20658339 -140.64239502 65.89599609 C-142.98098512 63.55690188 -145.30602391 61.20435697 -147.63427734 58.85498047 C-149.42448123 57.06250273 -151.21547163 55.27081009 -153.00732422 53.47998047 C-153.83987228 52.63822266 -154.67242035 51.79646484 -155.53019714 50.92919922 C-162.643634 43.77903834 -162.643634 43.77903834 -171.81201172 39.98388672 C-179.46487083 40.19529167 -184.34416679 42.49380712 -189.16748047 48.52294922 Z " fill="#D74B3D" transform="translate(808.37060546875,579.52001953125)"/>
<path d="M0 0 C1.25636222 -0.00573832 1.25636222 -0.00573832 2.53810549 -0.01159257 C5.35485323 -0.0219413 8.17139784 -0.0179269 10.98815918 -0.01396179 C13.00341481 -0.01830719 15.01866879 -0.02348976 17.03392029 -0.02944946 C22.51519276 -0.04286823 27.99639641 -0.04341501 33.47768211 -0.04088616 C38.04807421 -0.03981854 42.61845225 -0.04469438 47.18884134 -0.04949158 C57.96717276 -0.06059642 68.74546933 -0.06101848 79.52380371 -0.05497742 C90.65681759 -0.0489337 101.78970521 -0.06125654 112.92269754 -0.08254749 C122.47008017 -0.10013721 132.01742252 -0.10616906 141.56482077 -0.10290974 C147.2719729 -0.10109276 152.97903496 -0.10377438 158.68617249 -0.11762428 C164.05087932 -0.13015553 169.41538861 -0.1283033 174.78009224 -0.11521339 C176.75260547 -0.11283788 178.7251324 -0.11561692 180.69762993 -0.12383652 C183.38320658 -0.13422347 186.0681104 -0.1262687 188.75366211 -0.11352539 C189.54052163 -0.12089968 190.32738114 -0.12827396 191.13808489 -0.13587171 C196.37047251 -0.08337042 196.37047251 -0.08337042 198.82056427 1.58144855 C202.75231097 7.83212056 202.98541128 17.23430921 204.16394043 24.352005 C204.50238422 26.3890258 204.84949338 28.42444785 205.19714355 30.45991516 C205.41370605 31.7580011 205.63026855 33.05608704 205.85339355 34.39350891 C206.1485083 36.15525452 206.1485083 36.15525452 206.44958496 37.95259094 C206.85607938 41.10001919 206.95567943 44.09171383 206.87683105 47.26069641 C206.21683105 47.26069641 205.55683105 47.26069641 204.87683105 47.26069641 C204.87683105 47.92069641 204.87683105 48.58069641 204.87683105 49.26069641 C203.68933105 50.57319641 203.68933105 50.57319641 201.87683105 52.26069641 C194.59413142 59.35761289 187.45257447 67.10920958 182.87683105 76.26069641 C181.87683105 78.26069641 181.87683105 78.26069641 180.04089355 80.51460266 C177.84195396 83.30495381 176.04321893 86.13231892 174.25183105 89.19819641 C173.66144043 90.19721985 173.0710498 91.19624329 172.46276855 92.22554016 C170.78509052 95.23376345 170.78509052 95.23376345 169.79089355 98.57710266 C168.87683105 101.26069641 168.87683105 101.26069641 166.87683105 102.26069641 C166.06792744 104.07485983 166.06792744 104.07485983 165.4354248 106.27241516 C165.17874023 107.08887512 164.92205566 107.90533508 164.65759277 108.74653625 C164.39994141 109.57620911 164.14229004 110.40588196 163.87683105 111.26069641 C163.39171425 112.705773 162.90351978 114.1498207 162.4119873 115.59272766 C145.85954713 165.43285626 148.02369283 221.47394532 171.5135498 268.77241516 C174.84741709 275.24857984 178.73614817 281.27136019 182.87683105 287.26069641 C183.57679199 288.27776672 184.27675293 289.29483704 184.9979248 290.34272766 C186.6088529 292.66026003 188.23286299 294.96654162 189.87683105 297.26069641 C171.71726962 320.32824743 140.4737193 334.70683869 112.06433105 339.63569641 C81.56951169 343.17237369 49.71396589 337.6326973 23.9197998 320.38960266 C21.87196772 319.10539302 21.87196772 319.10539302 19.2401123 318.85054016 C18.07028809 318.5585675 18.07028809 318.5585675 16.87683105 318.26069641 C15.8338623 316.41694641 15.8338623 316.41694641 14.87683105 314.26069641 C12.88743494 312.42250699 12.88743494 312.42250699 10.56433105 310.76069641 C9.75866699 310.15483704 8.95300293 309.54897766 8.1229248 308.92475891 C7.0111084 308.10104797 7.0111084 308.10104797 5.87683105 307.26069641 C-9.41890344 295.44126521 -21.54451488 277.97394278 -29.12316895 260.26069641 C-29.12316895 259.60069641 -29.12316895 258.94069641 -29.12316895 258.26069641 C-29.78316895 257.93069641 -30.44316895 257.60069641 -31.12316895 257.26069641 C-31.91571164 255.18677994 -32.60955045 253.07455948 -33.24816895 250.94819641 C-33.60137207 249.7970636 -33.9545752 248.64593079 -34.31848145 247.45991516 C-35.12316895 244.26069641 -35.12316895 244.26069641 -35.12316895 240.26069641 C-35.78316895 239.93069641 -36.44316895 239.60069641 -37.12316895 239.26069641 C-37.5020752 237.26460266 -37.5020752 237.26460266 -37.68566895 234.82319641 C-37.92928645 231.41441436 -37.92928645 231.41441436 -39.12316895 228.26069641 C-40.17035379 216.26091013 -39.19356724 203.91029002 -38.0255127 191.95991516 C-37.89839401 190.65594788 -37.77127533 189.35198059 -37.64030457 188.00849915 C-35.64303293 168.25849504 -32.6823212 148.61481584 -29.89086914 128.96528625 C-28.68160957 120.45215073 -27.47860792 111.9381564 -26.28471947 103.42285156 C-25.87006099 100.47809714 -25.44939772 97.53424415 -25.02827454 94.59040833 C-24.77489785 92.79108765 -24.52176647 90.99173242 -24.2689209 89.19233704 C-24.15207443 88.38723694 -24.03522797 87.58213684 -23.9148407 86.75263977 C-23.28344431 82.21016922 -23.10923447 77.85622628 -23.12316895 73.26069641 C-22.79316895 72.93069641 -22.46316895 72.60069641 -22.12316895 72.26069641 C-21.77372199 70.34007575 -21.48277584 68.40878025 -21.21520996 66.47505188 C-21.04155411 65.23641388 -20.86789825 63.99777588 -20.6889801 62.72160339 C-20.59751268 62.05499569 -20.50604527 61.38838799 -20.41180611 60.70158005 C-20.12537301 58.6154869 -19.83361677 56.53020144 -19.54039001 54.4450531 C-18.81229343 49.26003043 -18.09263072 44.07384556 -17.37426758 38.88746643 C-16.76855835 34.51545767 -16.15886682 30.14404265 -15.54362297 25.77336502 C-15.25723636 23.72725819 -14.97669256 21.68040469 -14.69630432 19.63346863 C-14.51949631 18.37591766 -14.34268829 17.1183667 -14.16052246 15.82270813 C-14.00809586 14.72208038 -13.85566925 13.62145264 -13.69862366 12.48747253 C-13.0690719 8.95735533 -12.30619085 5.64840808 -11.12316895 2.26069641 C-7.34849974 -0.25574973 -4.37145928 -0.02099633 0 0 Z " fill="#236052" transform="translate(359.1231689453125,521.7393035888672)"/>
<path d="M0 0 C32.18940224 29.23766202 52.43986732 70.03289501 55.62939453 113.47998047 C55.90947685 120.55205899 55.95680534 127.51107371 54.62939453 134.47998047 C54.29939453 134.47998047 53.96939453 134.47998047 53.62939453 134.47998047 C53.6095752 133.86703125 53.58975586 133.25408203 53.56933594 132.62255859 C51.84430508 81.65313847 36.09480027 36.81820112 -1.87060547 1.10498047 C-34.47665401 -27.3439221 -76.22101937 -41.41276473 -119.37060547 -38.52001953 C-150.67679568 -35.0513982 -179.38389968 -24.74260338 -204.37060547 -5.52001953 C-205.93101562 -4.32505859 -205.93101562 -4.32505859 -207.52294922 -3.10595703 C-233.39238699 17.42995009 -251.49641404 46.17127277 -261.37060547 77.47998047 C-261.63035156 78.2859668 -261.89009766 79.09195313 -262.15771484 79.92236328 C-273.87127413 118.02907094 -266.95609766 162.66541773 -248.99560547 197.47998047 C-244.44285146 205.99621637 -239.40079806 213.93945107 -233.37060547 221.47998047 C-232.90541504 222.06328125 -232.44022461 222.64658203 -231.9609375 223.24755859 C-225.08615804 231.76465924 -217.66791411 239.35178645 -209.37060547 246.47998047 C-208.56236328 247.18638672 -207.75412109 247.89279297 -206.92138672 248.62060547 C-199.94967717 254.47453679 -192.2981991 259.0579186 -184.37060547 263.47998047 C-183.74412109 263.83092773 -183.11763672 264.181875 -182.47216797 264.54345703 C-171.28128895 270.71353192 -159.55791046 274.72566481 -147.37060547 278.47998047 C-147.37060547 278.80998047 -147.37060547 279.13998047 -147.37060547 279.47998047 C-154.13923932 278.99263883 -159.62361285 277.58361695 -165.87060547 274.97998047 C-166.73572754 274.62468262 -167.60084961 274.26938477 -168.4921875 273.90332031 C-187.66852409 265.86140431 -203.97524859 255.37663333 -218.89501953 240.90869141 C-220.25773726 239.58926319 -221.63766588 238.28767288 -223.01904297 236.98779297 C-253.32254771 207.83142405 -268.85993611 166.8604238 -270.49560547 125.30419922 C-271.35306926 78.84038009 -251.84405752 39.23610162 -221.36669922 5.39404297 C-219.37060547 3.47998047 -219.37060547 3.47998047 -217.37060547 3.47998047 C-217.37060547 2.81998047 -217.37060547 2.15998047 -217.37060547 1.47998047 C-191.87196239 -22.69007599 -158.68375554 -35.76294897 -124.37060547 -40.52001953 C-123.43861328 -40.65279297 -122.50662109 -40.78556641 -121.54638672 -40.92236328 C-77.14176598 -46.2802762 -32.84367028 -29.38852011 0 0 Z " fill="#CE2618" transform="translate(808.37060546875,579.52001953125)"/>
<path d="M0 0 C3.21228348 3.03609297 6.31437259 6.17149947 9.39722252 9.33858871 C10.91804071 10.89933173 12.44668946 12.45201033 13.97773743 14.00271606 C18.32410469 18.40670655 22.66001818 22.8207926 26.98168945 27.24902344 C29.63864021 29.97036678 32.30761256 32.67941588 34.98456764 35.38107681 C35.99835553 36.40911049 37.00744977 37.44179511 38.01166344 38.4791832 C39.41116491 39.92433609 40.82766557 41.35296823 42.24487305 42.78076172 C43.0445903 43.59761444 43.84430756 44.41446716 44.66825867 45.256073 C46.8650711 47.14885984 46.8650711 47.14885984 49.47981262 47.54759216 C53.05007923 46.77183635 54.52972465 45.05681944 57.078125 42.45776367 C57.7986908 41.7334742 57.7986908 41.7334742 58.53381348 40.99455261 C60.11774914 39.39694815 61.68344656 37.78260524 63.25 36.16796875 C64.35064307 35.05291304 65.45255066 33.93910421 66.55566406 32.82649231 C69.4579528 29.8937803 72.34579525 26.94727065 75.22998047 23.99676514 C79.8427779 19.28169086 84.47495215 14.58572692 89.11120605 9.89373207 C90.72555453 8.25527922 92.33241767 6.60975482 93.93847656 4.96318054 C94.93273689 3.95205791 95.92719281 2.94112755 96.921875 1.93041992 C97.78393555 1.04883713 98.64599609 0.16725433 99.53417969 -0.74104309 C104.29860881 -5.10577317 108.20057706 -6.85266195 114.5625 -7.1875 C118 -7 118 -7 121 -5 C120.27554688 -4.96261719 119.55109375 -4.92523437 118.8046875 -4.88671875 C117.83789062 -4.82097656 116.87109375 -4.75523437 115.875 -4.6875 C114.44800781 -4.60048828 114.44800781 -4.60048828 112.9921875 -4.51171875 C106.09385013 -3.33197698 102.08388484 0.51517698 97.4375 5.375 C96.88642578 5.93960938 96.33535156 6.50421875 95.76757812 7.0859375 C94.68346638 8.19705558 93.60224702 9.31100428 92.52416992 10.42797852 C90.37519368 12.64442221 88.18481003 14.81895688 86 17 C84.6696875 18.3921875 84.6696875 18.3921875 83.3125 19.8125 C81 22 81 22 79 22 C79 22.66 79 23.32 79 24 C78.34 24 77.68 24 77 24 C77 24.66 77 25.32 77 26 C75.42578125 27.515625 75.42578125 27.515625 73.3125 29.25 C70.75365111 31.41897174 68.66063189 33.40724173 66.5 36 C63.34396367 39.7872436 59.76946078 42.84041299 56 46 C55.39027344 46.51304687 54.78054688 47.02609375 54.15234375 47.5546875 C52.77308919 48.70895728 51.38733192 49.85545117 50 51 C44.10091581 47.76128711 39.25545412 44.53903895 34.84960938 39.37792969 C31.03172847 34.98361973 27.0090429 30.83056316 22.90625 26.703125 C21.78071716 25.56904205 21.78071716 25.56904205 20.63244629 24.41204834 C19.05729529 22.82751803 17.48073801 21.24438453 15.90283203 19.66259766 C13.49958948 17.24958781 11.10722964 14.82611162 8.71484375 12.40234375 C7.17513919 10.85611332 5.63479623 9.31051826 4.09375 7.765625 C3.3862561 7.0457843 2.67876221 6.3259436 1.9498291 5.58428955 C-2.53057249 1.1237316 -7.04174447 -3.19568248 -13.44140625 -4.49609375 C-20.00370498 -4.31481478 -23.95000696 -2.95888224 -28.8125 1.6875 C-31.39137126 5.5926479 -32.29005909 8.34999024 -32 13 C-29.64075813 21.25734655 -23.59113186 26.80698702 -17 32 C-17 32.66 -17 33.32 -17 34 C-15.68 34.66 -14.36 35.32 -13 36 C-13 36.66 -13 37.32 -13 38 C-11.68 38.66 -10.36 39.32 -9 40 C-9 40.66 -9 41.32 -9 42 C-8.34 42 -7.68 42 -7 42 C-7 42.66 -7 43.32 -7 44 C-6.34 44 -5.68 44 -5 44 C-5 44.66 -5 45.32 -5 46 C-4.443125 46.226875 -3.88625 46.45375 -3.3125 46.6875 C-0.3530491 48.36718835 1.66126784 50.54133285 4 53 C4.598125 53.556875 5.19625 54.11375 5.8125 54.6875 C7 56 7 56 7 58 C7.66 58 8.32 58 9 58 C9 58.66 9 59.32 9 60 C9.53625 60.20625 10.0725 60.4125 10.625 60.625 C13.91978009 62.53250426 16.59363628 65.04819384 19 68 C19 68.66 19 69.32 19 70 C19.9590625 70.2784375 19.9590625 70.2784375 20.9375 70.5625 C23 72 23 72 24.1875 75.125 C23.98290614 79.35327317 23.71021478 79.78035602 21.0078125 82.7109375 C20.369646 83.40687012 19.73147949 84.10280273 19.07397461 84.81982422 C15.64964804 88.41949889 12.19904233 91.98520323 8.6875 95.5 C7.97271484 96.22703125 7.25792969 96.9540625 6.52148438 97.703125 C5.83763672 98.38890625 5.15378906 99.0746875 4.44921875 99.78125 C3.83393311 100.40064453 3.21864746 101.02003906 2.5847168 101.65820312 C1 103 1 103 -1 103 C-1.2371875 103.56170898 -1.474375 104.12341797 -1.71875 104.70214844 C-3.29319357 107.52582658 -5.21684545 109.47614842 -7.5 111.765625 C-8.386875 112.65507813 -9.27375 113.54453125 -10.1875 114.4609375 C-11.115625 115.38132812 -12.04375 116.30171875 -13 117.25 C-13.928125 118.18585938 -14.85625 119.12171875 -15.8125 120.0859375 C-16.699375 120.97023438 -17.58625 121.85453125 -18.5 122.765625 C-19.72203125 123.98427246 -19.72203125 123.98427246 -20.96875 125.22753906 C-23 127 -23 127 -25 127 C-25 127.66 -25 128.32 -25 129 C-25.78375 129.7425 -26.5675 130.485 -27.375 131.25 C-30.69359257 134.72662079 -31.96156634 137.32886071 -32.03125 142.171875 C-31.67853082 147.42739075 -30.50585527 150.90983552 -27 155 C-22.49984925 158.81830972 -16.66179521 159.15717584 -11 160 C-11 160.33 -11 160.66 -11 161 C-17.88486096 161.50789958 -23.33727539 161.24075154 -29 157 C-33.34572239 152.92453398 -34.6300076 148.62048654 -35.34765625 142.8203125 C-34.10412999 132.73238034 -27.091346 126.3953794 -20.1796875 119.62109375 C-19.11307418 118.55873765 -18.04742602 117.49541174 -16.98269653 116.4311676 C-14.76279914 114.21740072 -12.53494991 112.01209786 -10.30029297 109.81323242 C-7.43207644 106.99059028 -4.57964125 104.15262474 -1.73228264 101.30895901 C0.46131824 99.11977537 2.66030161 96.93607072 4.86126328 94.75428963 C5.9157214 93.70872046 6.96910354 92.66206503 8.02139664 91.61431694 C9.48593194 90.15878409 10.95692839 88.7101349 12.43017578 87.26342773 C13.26638458 86.43785873 14.10259338 85.61228973 14.96414185 84.76170349 C17 83 17 83 19 83 C20.87357659 79.83833951 21.49531306 77.66316317 21 74 C18.9924111 71.28528652 18.9924111 71.28528652 16.18237305 68.66235352 C15.67025269 68.1543219 15.15813232 67.64629028 14.63049316 67.12286377 C12.93535226 65.44649428 11.22354955 63.78821393 9.51171875 62.12890625 C8.32933157 60.96347153 7.14826289 59.79669774 5.96846008 58.62864685 C2.85801804 55.55430589 -0.26579215 52.49395443 -3.3939209 49.43762207 C-8.3926497 44.55211764 -13.37741836 39.65260716 -18.34972191 34.74021721 C-20.0862375 33.03053215 -21.83232035 31.33107409 -23.579422 29.63221741 C-24.65139336 28.57754695 -25.72300167 27.52250731 -26.79418945 26.46704102 C-27.72906693 25.5539064 -28.6639444 24.64077179 -29.62715149 23.69996643 C-33.46127371 19.33727692 -35.71987337 15.09185833 -35.48046875 9.15234375 C-34.20427795 3.435424 -30.36253191 -0.88772905 -25.9375 -4.5 C-16.06466469 -9.54144782 -7.98933459 -6.70496017 0 0 Z " fill="#D3281A" transform="translate(650,625)"/>
<path d="M0 0 C0.33 0 0.66 0 1 0 C2.71018585 21.56734375 -6.88579324 44.4362058 -17 63 C-17.56589844 64.05832031 -18.13179687 65.11664062 -18.71484375 66.20703125 C-25.75985763 78.85490323 -35.06658874 89.5691645 -45 100 C-45.65355469 100.70640625 -46.30710937 101.4128125 -46.98046875 102.140625 C-53.77790477 109.27141076 -61.81162054 115.54108036 -70 121 C-70 121.99 -70 122.98 -70 124 C-71.32 124 -72.64 124 -74 124 C-76.46470445 125.28936496 -78.81265562 126.62508661 -81.1875 128.0625 C-94.63609952 135.88500687 -108.920596 141.24601093 -124 145 C-125.88332031 145.48146484 -125.88332031 145.48146484 -127.8046875 145.97265625 C-138.61338181 148.37876559 -149.54672283 148.25921592 -160.5625 148.25 C-161.35475983 148.24940582 -162.14701965 148.24881165 -162.96328735 148.24819946 C-185.81716069 148.18283931 -185.81716069 148.18283931 -189 145 C-184.53241259 144.92908591 -180.2409767 144.94819532 -175.8046875 145.484375 C-151.5568329 148.2842253 -126.78025771 144.48978527 -104 136 C-102.90945313 135.59910156 -101.81890625 135.19820312 -100.6953125 134.78515625 C-83.30889998 127.9366622 -67.94712421 118.04088484 -54.40234375 105.2265625 C-52 103 -52 103 -49.25390625 100.8359375 C-46.92772706 99.1979868 -46.92772706 99.1979868 -46 97 C-45.34 97 -44.68 97 -44 97 C-43.73058594 96.39671875 -43.46117187 95.7934375 -43.18359375 95.171875 C-41.98679448 92.9757681 -40.92985934 91.87537879 -39.0625 90.25 C-30.16302876 81.61118273 -23.5706932 69.96877337 -18 59 C-17.44957031 58.00613281 -16.89914062 57.01226563 -16.33203125 55.98828125 C-6.94727982 38.48250872 -2.83563971 19.51157999 0 0 Z " fill="#CB2417" transform="translate(861,716)"/>
<path d="M0 0 C5.00535933 1.57311293 8.41384327 4.3341436 11.11328125 8.87109375 C12.79678378 12.91298308 12.62284105 16.72065307 12 21 C8.5589575 28.41010193 2.28752053 34.05655139 -3.49321938 39.65758324 C-5.08575464 41.20188285 -6.66726018 42.75676868 -8.24638367 44.31477356 C-12.73159169 48.73630467 -17.23548404 53.1385842 -21.74633789 57.53393555 C-24.51945963 60.23750232 -27.28023497 62.9531917 -30.03401756 65.67644691 C-31.08061479 66.70631606 -32.13199382 67.73134985 -33.18825722 68.75130272 C-34.66221561 70.17474065 -36.12006608 71.61301998 -37.57543945 73.05541992 C-38.40783646 73.86766525 -39.24023346 74.67991058 -40.09785461 75.51676941 C-42.32101762 78.41908509 -42.8072207 80.3759029 -43 84 C-41.87505213 85.93281945 -41.87505213 85.93281945 -40 87.375 C-37.32640595 89.78388177 -34.89034156 92.19032439 -32.5625 94.9375 C-28.91078337 99.17185006 -24.98514957 103.08211034 -21 107 C-20.0925 107.928125 -19.185 108.85625 -18.25 109.8125 C-16.08039212 112.02429111 -16.08039212 112.02429111 -13.6875 113.6875 C-13.130625 114.120625 -12.57375 114.55375 -12 115 C-12 115.66 -12 116.32 -12 117 C-11.34 117 -10.68 117 -10 117 C-9.46375 117.680625 -8.9275 118.36125 -8.375 119.0625 C-6.41464756 121.48714643 -4.67093925 123.20884918 -2.3125 125.1875 C9.8684816 135.60544479 9.8684816 135.60544479 12 142 C12.06802967 143.72795352 12.08495645 145.45835365 12.0625 147.1875 C12.05347656 148.08855469 12.04445313 148.98960937 12.03515625 149.91796875 C12.02355469 150.60503906 12.01195312 151.29210937 12 152 C11.67 152 11.34 152 11 152 C10.79697266 150.83984375 10.79697266 150.83984375 10.58984375 149.65625 C10.37457031 148.6146875 10.15929687 147.573125 9.9375 146.5 C9.64166016 144.96859375 9.64166016 144.96859375 9.33984375 143.40625 C7.47854608 138.67432124 4.48441162 135.63886777 1 132 C0.01519653 130.94329102 0.01519653 130.94329102 -0.98950195 129.86523438 C-3.00920016 127.71727422 -5.06178092 125.60612156 -7.125 123.5 C-7.81464844 122.77296875 -8.50429688 122.0459375 -9.21484375 121.296875 C-9.88902344 120.61109375 -10.56320312 119.9253125 -11.2578125 119.21875 C-11.8573877 118.59935547 -12.45696289 117.97996094 -13.07470703 117.34179688 C-15.51582026 115.64050873 -17.08759685 115.74145441 -20 116 C-20 114.68 -20 113.36 -20 112 C-21.37161037 109.88905685 -21.37161037 109.88905685 -23.25 107.9375 C-23.85328125 107.26589844 -24.4565625 106.59429688 -25.078125 105.90234375 C-26.96218973 103.94100574 -26.96218973 103.94100574 -29.234375 102.37890625 C-29.81703125 101.92386719 -30.3996875 101.46882812 -31 101 C-31 100.34 -31 99.68 -31 99 C-31.5878125 98.74863281 -32.175625 98.49726562 -32.78125 98.23828125 C-36.69724565 96.05276959 -39.16453449 92.40782166 -42 89 C-43.2065625 87.6696875 -43.2065625 87.6696875 -44.4375 86.3125 C-46 84 -46 84 -46.5 81.5 C-45.83035451 78.15177256 -44.35511154 76.42437953 -42 74 C-41.34 74 -40.68 74 -40 74 C-39.773125 73.44828125 -39.54625 72.8965625 -39.3125 72.328125 C-37.61274074 69.31307583 -35.45195184 67.18769631 -33 64.75 C-32.113125 63.85796875 -31.22625 62.9659375 -30.3125 62.046875 C-28 60 -28 60 -26 60 C-25.731875 59.360625 -25.46375 58.72125 -25.1875 58.0625 C-24 56 -24 56 -21 55 C-21 54.34 -21 53.68 -21 53 C-20.34 53 -19.68 53 -19 53 C-18.7525 52.38125 -18.505 51.7625 -18.25 51.125 C-16.76259631 48.59641373 -15.56321991 48.28160996 -13 47 C-12.71253906 46.40574219 -12.42507813 45.81148437 -12.12890625 45.19921875 C-10.76351332 42.53930104 -9.08406103 40.89091623 -6.9375 38.8125 C-6.14085937 38.03132812 -5.34421875 37.25015625 -4.5234375 36.4453125 C-2.84114583 34.81510417 -1.15885417 33.18489583 0.5234375 31.5546875 C1.32007813 30.77351562 2.11671875 29.99234375 2.9375 29.1875 C3.66839844 28.47980469 4.39929688 27.77210938 5.15234375 27.04296875 C8.81064921 22.99795024 9.44780502 19.63367628 9.31640625 14.31640625 C8.78045563 10.39271834 7.36233564 8.19234545 5 5 C2.38142305 3.21037181 2.38142305 3.21037181 0 2 C0 1.34 0 0.68 0 0 Z " fill="#D42A1D" transform="translate(772,620)"/>
<path d="M0 0 C-1 2 -1 2 -3.75390625 2.97265625 C-5.63916016 3.51212891 -5.63916016 3.51212891 -7.5625 4.0625 C-39.70278572 13.68050366 -69.91206693 28.16000201 -97 48 C-97.82000488 48.59828613 -98.64000977 49.19657227 -99.48486328 49.81298828 C-110.78959236 58.11147362 -121.41021593 66.77263384 -131.47070312 76.54003906 C-133.58469268 78.55818362 -135.78707254 80.46653572 -138 82.375 C-141.35244254 85.32715089 -144.29871893 88.45631772 -147.18359375 91.86328125 C-149.26207852 94.30829452 -151.40763347 96.68459219 -153.5625 99.0625 C-157.10696445 102.98932963 -160.57917903 106.96518552 -164 111 C-164 101.58812592 -147.37580684 88.67366896 -141 82 C-140.14019531 81.09765625 -139.28039062 80.1953125 -138.39453125 79.265625 C-134.4860749 75.25038022 -134.4860749 75.25038022 -133 74 C-132.34 74 -131.68 74 -131 74 C-130.505 72.515 -130.505 72.515 -130 71 C-128.37109375 69.46484375 -128.37109375 69.46484375 -126.4375 67.9375 C-124.5289778 66.47246535 -124.5289778 66.47246535 -123 65 C-123 64.34 -123 63.68 -123 63 C-122.45859375 62.93554688 -121.9171875 62.87109375 -121.359375 62.8046875 C-118.02844076 61.66864039 -115.81791458 59.44223251 -113.25 57.125 C-105.93370982 50.74274887 -98.11550977 45.31104358 -90 40 C-89.05133057 39.37593262 -89.05133057 39.37593262 -88.08349609 38.73925781 C-64.41707986 23.27237475 -39.25579675 11.33974875 -12.5 2.25 C-11.79520508 2.00975098 -11.09041016 1.76950195 -10.36425781 1.52197266 C-6.81344063 0.37703335 -3.73374324 -0.25848992 0 0 Z " fill="#144035" transform="translate(363,177)"/>
<path d="M0 0 C1.43861294 0.08746284 2.87597508 0.19565348 4.3125 0.3125 C5.11300781 0.37050781 5.91351562 0.42851562 6.73828125 0.48828125 C9.45062269 1.10195436 10.10553949 2.02462032 12 4 C13.8233956 4.93743667 15.68179208 5.80860748 17.5625 6.625 C19.01849609 7.26308594 19.01849609 7.26308594 20.50390625 7.9140625 C21.32761719 8.27242187 22.15132812 8.63078125 23 9 C32.83144317 13.91572159 42.08865058 20.27569248 51.27563477 26.28076172 C57.49228814 30.38683972 57.49228814 30.38683972 64 34 C64.7425 34.75152344 65.485 35.50304687 66.25 36.27734375 C69.01543074 39.01527731 71.87224786 41.25187311 75 43.5625 C81.61043702 48.53244611 87.59901609 54.0382157 93.60742188 59.70898438 C95.37495803 61.34761186 97.21239399 62.89319663 99.0625 64.4375 C104.32131795 68.98776143 108.88037186 74.23855111 113.53466797 79.390625 C114.85217213 80.83764056 116.19231601 82.2639652 117.53515625 83.6875 C128.5667668 95.45455125 138.04695069 108.60757562 147 122 C147.55945313 122.81597656 148.11890625 123.63195312 148.6953125 124.47265625 C149.88305572 126.26076148 150.95750048 128.12350086 152 130 C151.67 130.99 151.34 131.98 151 133 C150.41734375 132.030625 149.8346875 131.06125 149.234375 130.0625 C134.929035 106.55389013 117.11132358 86.08093388 97.75 66.625 C97.10071533 65.97104248 96.45143066 65.31708496 95.7824707 64.64331055 C69.95338316 38.89947834 39.12891188 20.09165045 6.5234375 4.22998047 C4.34195907 3.16667858 2.16829461 2.08987343 0 1 C0 0.67 0 0.34 0 0 Z " fill="#113B30" transform="translate(583,191)"/>
<path d="M0 0 C1.6171875 1.28515625 1.6171875 1.28515625 2.875 3.0625 C5.07503473 5.92081284 7.31647249 8.28083017 10.0625 10.625 C13.1973575 13.30256542 16.21607658 15.95508376 19 19 C19 19.66 19 20.32 19 21 C20.485 21.495 20.485 21.495 22 22 C22 22.66 22 23.32 22 24 C22.61875 24.2475 23.2375 24.495 23.875 24.75 C26.40358627 26.23740369 26.71839004 27.43678009 28 30 C28.62003906 30.30164063 29.24007812 30.60328125 29.87890625 30.9140625 C32.23392016 32.11976023 33.31089537 33.31132985 34.9375 35.375 C37.38667058 38.35338835 39.93476714 40.64212857 43 43 C44.68933922 44.6436814 46.35259924 46.3142876 48 48 C49.43615967 49.43883908 50.87373404 50.87626708 52.3125 52.3125 C53.54166667 53.54166667 54.77083333 54.77083333 56 56 C55.01 56.495 55.01 56.495 54 57 C47.84771811 51.84994855 42.19932448 46.26437914 36.60277748 40.52511597 C34.02286987 37.88351258 31.42682823 35.25780185 28.83398438 32.62890625 C25.55386956 29.30076256 22.27866469 25.96811999 19.01831055 22.62060547 C16.36363409 19.89580184 13.69464493 17.18578046 11.01543236 14.48510742 C10.00089612 13.45698139 8.99179646 12.42346091 7.98833656 11.38452148 C6.59124257 9.93931962 5.1736217 8.51404623 3.75512695 7.08984375 C2.9554097 6.27378662 2.15569244 5.45772949 1.33174133 4.61694336 C-0.86452595 2.77913942 -0.86452595 2.77913942 -3.46160889 2.93222046 C-6.86807095 4.36515586 -8.78923977 6.34715905 -11.36938477 8.99462891 C-11.88062897 9.51332047 -12.39187317 10.03201202 -12.91860962 10.56642151 C-14.02412736 11.69046846 -15.12502749 12.81907163 -16.22177315 13.95167923 C-17.95675862 15.74240813 -19.70440161 17.51984714 -21.45603943 19.29428101 C-25.80147237 23.70114801 -30.12671208 28.1276314 -34.44799805 32.5581665 C-38.10393689 36.30604955 -41.76940448 40.04403376 -45.44953728 43.7681694 C-47.17459097 45.52196703 -48.884408 47.28976657 -50.59437561 49.05825806 C-51.64881258 50.12765622 -52.70398431 51.19633058 -53.76000977 52.26416016 C-54.6775856 53.20490387 -55.59516144 54.14564758 -56.5405426 55.11489868 C-59 57 -59 57 -61.32749939 56.79598999 C-61.87942459 56.53331329 -62.43134979 56.2706366 -63 56 C-62.5776709 55.6505835 -62.1553418 55.30116699 -61.72021484 54.94116211 C-57.13079562 51.0409288 -52.83586759 46.90563542 -48.6015625 42.62890625 C-48.03644958 42.05828461 -47.47133667 41.48766296 -46.88909912 40.89974976 C-44.52874111 38.51164479 -42.17220331 36.11984219 -39.81982422 33.72387695 C-38.08470636 31.95874547 -36.34357159 30.19973315 -34.6015625 28.44140625 C-34.06826324 27.89464737 -33.53496399 27.34788849 -32.98550415 26.78456116 C-31.69447777 25.48471482 -30.35155967 24.23678457 -29 23 C-28.34 23 -27.68 23 -27 23 C-26.63310059 22.15066895 -26.63310059 22.15066895 -26.25878906 21.28417969 C-23.67749969 16.60021084 -19.48294638 13.0275855 -15.75 9.25 C-14.90308594 8.36183594 -14.05617188 7.47367188 -13.18359375 6.55859375 C-12.35472656 5.71941406 -11.52585937 4.88023437 -10.671875 4.015625 C-9.9200293 3.24508789 -9.16818359 2.47455078 -8.39355469 1.68066406 C-5.38142369 -0.43434101 -3.60689115 -0.42539121 0 0 Z " fill="#D42E1F" transform="translate(703,727)"/>
<path d="M0 0 C0.33 0 0.66 0 1 0 C1.03963867 0.70382812 1.07927734 1.40765625 1.12011719 2.1328125 C3.1760799 36.93651283 12.55939597 65.16979641 37 91 C37.77085937 91.8353125 38.54171875 92.670625 39.3359375 93.53125 C44.82966028 99.29165836 50.59625745 103.74319172 57.21484375 108.08984375 C59.43557701 109.61289924 61.21133814 111.01190546 63 113 C56.9453125 112.609375 56.9453125 112.609375 55 112 C54.29108245 110.68864264 53.62946893 109.35129238 53 108 C51.01060388 106.16181058 51.01060388 106.16181058 48.6875 104.5 C47.88183594 103.89414062 47.07617188 103.28828125 46.24609375 102.6640625 C45.50488281 102.11492187 44.76367188 101.56578125 44 101 C28.7042655 89.1805688 16.57865407 71.71324637 9 54 C9 53.34 9 52.68 9 52 C8.34 51.67 7.68 51.34 7 51 C6.2074573 48.92608353 5.5136185 46.81386307 4.875 44.6875 C4.52179688 43.53636719 4.16859375 42.38523437 3.8046875 41.19921875 C3 38 3 38 3 34 C2.34 33.67 1.68 33.34 1 33 C0.62109375 31.00390625 0.62109375 31.00390625 0.4375 28.5625 C0.1938825 25.15371795 0.1938825 25.15371795 -1 22 C-1.09572552 20.41763913 -1.13074047 18.8313461 -1.1328125 17.24609375 C-1.13410156 16.30958984 -1.13539063 15.37308594 -1.13671875 14.40820312 C-1.13285156 13.42787109 -1.12898438 12.44753906 -1.125 11.4375 C-1.12886719 10.45330078 -1.13273437 9.46910156 -1.13671875 8.45507812 C-1.13542969 7.51986328 -1.13414062 6.58464844 -1.1328125 5.62109375 C-1.13168457 4.7592749 -1.13055664 3.89745605 -1.12939453 3.00952148 C-1 1 -1 1 0 0 Z " fill="#12392E" transform="translate(321,728)"/>
<path d="M0 0 C2 1 2 1 3.19140625 4.55078125 C3.6508769 6.1373164 4.10770542 7.72461809 4.5625 9.3125 C10.9091259 30.26552307 21.1948422 48.36110714 34 66 C33.01 67.32 32.02 68.64 31 70 C30.34 69.67 29.68 69.34 29 69 C29.66 67.68 30.32 66.36 31 65 C30.53851562 64.47535156 30.07703125 63.95070313 29.6015625 63.41015625 C16.25179758 47.55401254 0 21.2768304 0 0 Z " fill="#1A3A2E" transform="translate(515,753)"/>
<path d="M0 0 C3.09562599 1.547813 3.54389714 4.19478212 4.9375 7.3125 C8.67569785 15.21147459 13.79563265 20.93516116 20 27 C20.56074219 27.59296875 21.12148437 28.1859375 21.69921875 28.796875 C31.49347223 38.35976816 45.97294225 42.36687131 59 45 C59 45.33 59 45.66 59 46 C54.71 46 50.42 46 46 46 C46 45.34 46 44.68 46 44 C45.31679687 43.90203125 44.63359375 43.8040625 43.9296875 43.703125 C26.96685211 39.63204451 14.52886531 26.86797522 5 13 C0 4.56666667 0 4.56666667 0 0 Z " fill="#143B2F" transform="translate(145,449)"/>
<path d="M0 0 C0 0.66 0 1.32 0 2 C-1.81654614 3.62049394 -3.62519831 5.09744683 -5.5625 6.5625 C-6.14531738 7.00505127 -6.72813477 7.44760254 -7.32861328 7.90356445 C-20.76760462 17.91234869 -35.59829304 25.81979656 -51.5625 30.9375 C-52.21726318 31.14922852 -52.87202637 31.36095703 -53.54663086 31.57910156 C-57.4660111 32.76486433 -60.91379082 33.20777335 -65 33 C-61.82281332 30.88187555 -59.4273339 30.2071143 -55.75 29.25 C-36.560865 23.8802009 -19.63627613 15.00136271 -4.4375 2 C-2 0 -2 0 0 0 Z " fill="#153A2E" transform="translate(541,826)"/>
<path d="M0 0 C1.08015434 3.24046302 0.9642153 3.86192391 0.0390625 6.98046875 C-4.51681099 23.64765928 -4.91745016 39.83934456 -5 57 C-8.67875968 53.32124032 -7.90557087 47.27562631 -8.01123047 42.26513672 C-7.94585167 29.0785179 -6.66819173 11.63956682 0 0 Z " fill="#133C31" transform="translate(147,380)"/>
<path d="M0 0 C7.72353844 0.45200893 14.81896264 1.75332499 22.25 3.875 C23.19101562 4.13152344 24.13203125 4.38804687 25.1015625 4.65234375 C30.26891726 6.09254487 35.12853712 7.75266768 40 10 C36.82026961 11.03801485 34.9633742 10.94929254 31.796875 9.92578125 C30.98831055 9.67199707 30.17974609 9.41821289 29.34667969 9.15673828 C28.48977539 8.87813965 27.63287109 8.59954102 26.75 8.3125 C17.90062548 5.53714691 9.02151738 3.14198038 0 1 C0 0.67 0 0.34 0 0 Z " fill="#123D31" transform="translate(516,170)"/>
<path d="M0 0 C0.33 0 0.66 0 1 0 C1.26054785 5.31380481 0.50360751 9.63061967 -1.375 14.5625 C-1.63321533 15.24707275 -1.89143066 15.93164551 -2.1574707 16.63696289 C-5.1993342 24.18902582 -9.65223758 30.87906711 -15 37 C-16.485 37.495 -16.485 37.495 -18 38 C-16.68933137 35.18082597 -15.21135629 32.9042432 -13.25 30.5 C-6.26139499 21.26140509 -2.78759995 11.08480923 0 0 Z " fill="#13392C" transform="translate(767,435)"/>
<path d="M0 0 C0.33 0 0.66 0 1 0 C1.23776465 6.71024681 0.79816726 12.92258847 -0.421875 19.51953125 C-1.6037039 26.63446064 -2.25099509 33.82867636 -3 41 C-3.33 41 -3.66 41 -4 41 C-4.47385976 32.17216813 -3.62207342 23.63134482 -2.5625 14.875 C-2.42803467 13.7600415 -2.29356934 12.64508301 -2.1550293 11.49633789 C-1.14000673 3.4200202 -1.14000673 3.4200202 0 0 Z " fill="#11372C" transform="translate(325,686)"/>
<path d="M0 0 C0.66 0.33 1.32 0.66 2 1 C-8.23 11.23 -18.46 21.46 -29 32 C-29 29 -29 29 -27.171875 26.9140625 C-26.37265625 26.15867187 -25.5734375 25.40328125 -24.75 24.625 C-22.3055975 22.26803336 -20.03674657 20.04676836 -17.9375 17.375 C-15.61095332 14.52310407 -12.9659576 12.29848637 -10.171875 9.9140625 C-6.61395174 6.77848265 -3.31216096 3.39144141 0 0 Z " fill="#2A6E5E" transform="translate(239,245)"/>
<path d="M0 0 C5.00924424 1.5743339 8.39532871 4.33859396 11.12109375 8.859375 C12.73612741 12.79287921 12.56348473 16.83283385 12 21 C10.90965608 23.40823788 9.72206345 24.95504966 8 27 C7.67 26.34 7.34 25.68 7 25 C7.65877227 23.6627486 8.3265591 22.32992465 9 21 C9.72936873 16.41176182 9.48708468 12.27167767 7.3125 8.125 C5.03295247 5.04453037 3.32970588 3.75734477 0 2 C0 1.34 0 0.68 0 0 Z " fill="#D32519" transform="translate(772,620)"/>
<path d="M0 0 C0.33 0 0.66 0 1 0 C1.30840807 7.63309969 0.13339612 14.96444741 -1 22.5 C-1.19078125 23.799375 -1.3815625 25.09875 -1.578125 26.4375 C-2.04699104 29.6257891 -2.52108945 32.8132069 -3 36 C-3.33 36 -3.66 36 -4 36 C-4.23292783 28.09339434 -3.79292797 20.68433583 -2.4375 12.890625 C-2.07117035 10.47023264 -1.91814191 8.31027803 -2 5.875 C-2 3 -2 3 0 0 Z " fill="#113A2E" transform="translate(338,592)"/>
<path d="M0 0 C6.3616208 2.93720348 11.1557079 8.03755444 16 13 C17.43615466 14.43884409 18.87373848 15.87626263 20.3125 17.3125 C21.54166667 18.54166667 22.77083333 19.77083333 24 21 C23.34 21.33 22.68 21.66 22 22 C16.54897865 17.49698236 11.50310185 12.61291409 6.5 7.625 C5.86433105 6.99384277 5.22866211 6.36268555 4.57373047 5.71240234 C3.98221191 5.1189502 3.39069336 4.52549805 2.78125 3.9140625 C2.24564453 3.3773291 1.71003906 2.8405957 1.15820312 2.28759766 C0 1 0 1 0 0 Z " fill="#D32517" transform="translate(735,762)"/>
<path d="M0 0 C0.33 0 0.66 0 1 0 C1.05802698 3.43742918 1.09360486 6.87473253 1.125 10.3125 C1.14175781 11.28896484 1.15851562 12.26542969 1.17578125 13.27148438 C1.18222656 14.20927734 1.18867187 15.14707031 1.1953125 16.11328125 C1.20578613 16.97735596 1.21625977 17.84143066 1.22705078 18.73168945 C1 21 1 21 -1 24 C-2.2039337 20.24600202 -2.09877617 16.66782588 -2.0625 12.75 C-2.05347656 11.48671875 -2.04445313 10.2234375 -2.03515625 8.921875 C-2.02355469 7.95765625 -2.01195312 6.9934375 -2 6 C-1.34 6 -0.68 6 0 6 C0 4.02 0 2.04 0 0 Z " fill="#CF3629" transform="translate(540,688)"/>
<path d="M0 0 C0.66 0.33 1.32 0.66 2 1 C-3.28 6.28 -8.56 11.56 -14 17 C-14.99 16.67 -15.98 16.34 -17 16 C-15.10730953 14.08014172 -13.21100983 12.16408963 -11.3125 10.25 C-10.51682617 9.44175781 -10.51682617 9.44175781 -9.70507812 8.6171875 C-6.62068501 5.51387173 -3.48423727 2.66327598 0 0 Z " fill="#D95643" transform="translate(601,575)"/>
<path d="M0 0 C0.8125 1.625 0.8125 1.625 1 4 C-2.02738683 8.49521075 -4.77286353 11.19060661 -10 13 C-13.01965152 13.22276118 -15.97928674 13.1812428 -19 13 C-16.21036074 11.51007903 -13.54060223 10.53616124 -10.5 9.6875 C-6.32141967 8.33580817 -4.37477379 6.79963806 -2 3 C-1.34 2.01 -0.68 1.02 0 0 Z " fill="#D1291C" transform="translate(782,773)"/>
<path d="M0 0 C6.78376359 5.55035203 12.85522968 11.76442027 19 18 C18.34 18.33 17.68 18.66 17 19 C14 18 14 18 12.625 15.625 C11.18545665 12.85157681 11.18545665 12.85157681 8.5 11.5 C5.52939461 9.71763677 4.6487925 7.99780454 3 5 C2.443125 4.443125 1.88625 3.88625 1.3125 3.3125 C0.879375 2.879375 0.44625 2.44625 0 2 C0 1.34 0 0.68 0 0 Z " fill="#D85543" transform="translate(650,678)"/>
<path d="M0 0 C0.66 0.33 1.32 0.66 2 1 C2.4140625 3.72265625 2.4140625 3.72265625 2.625 7.0625 C2.69976563 8.16722656 2.77453125 9.27195312 2.8515625 10.41015625 C2.90054688 11.26480469 2.94953125 12.11945312 3 13 C2.34 13 1.68 13 1 13 C1 13.66 1 14.32 1 15 C0.02149805 16.02104551 -0.97980427 17.0206121 -2 18 C-2.33 18.66 -2.66 19.32 -3 20 C-3.99 20 -4.98 20 -6 20 C-4.91816103 17.47570908 -4.05817852 16.0493636 -1.9375 14.25 C0.61664331 11.2838981 0.4174767 9.60196408 0.25 5.75 C0.21390625 4.67234375 0.1778125 3.5946875 0.140625 2.484375 C0.09421875 1.66453125 0.0478125 0.8446875 0 0 Z " fill="#234336" transform="translate(563,556)"/>
<path d="M0 0 C0.66 0.33 1.32 0.66 2 1 C1.41992188 1.64066406 0.83984375 2.28132813 0.2421875 2.94140625 C-4.24094975 7.90540806 -8.67445028 12.89806956 -13 18 C-13 13.90544392 -11.35948542 12.66442057 -8.75 9.5625 C-7.96109375 8.61503906 -7.1721875 7.66757812 -6.359375 6.69140625 C-4.31690091 4.3614979 -2.22278119 2.1565056 0 0 Z " fill="#123C31" transform="translate(212,270)"/>
<path d="M0 0 C1.06528748 2.73019786 1.07998186 3.79298812 0.00390625 6.578125 C-0.47175781 7.45984375 -0.94742188 8.3415625 -1.4375 9.25 C-1.91058594 10.14203125 -2.38367188 11.0340625 -2.87109375 11.953125 C-3.24363281 12.62859375 -3.61617187 13.3040625 -4 14 C-4.66 13.67 -5.32 13.34 -6 13 C-4.58707905 8.1725201 -2.57025846 4.2837641 0 0 Z " fill="#D02F1F" transform="translate(560,620)"/>
<path d="M0 0 C0 0.66 0 1.32 0 2 C-1.96875 3.7265625 -1.96875 3.7265625 -4.5 5.625 C-5.3353125 6.25664063 -6.170625 6.88828125 -7.03125 7.5390625 C-7.6809375 8.02117188 -8.330625 8.50328125 -9 9 C-9 6 -9 6 -7.5390625 4.39453125 C-6.59160156 3.61142578 -6.59160156 3.61142578 -5.625 2.8125 C-4.68527344 2.01779297 -4.68527344 2.01779297 -3.7265625 1.20703125 C-2 0 -2 0 0 0 Z " fill="#1D3F32" transform="translate(541,826)"/>
<path d="M0 0 C0.66 0.33 1.32 0.66 2 1 C0.71451591 2.33929505 -0.57858155 3.67128643 -1.875 5 C-2.59429687 5.7425 -3.31359375 6.485 -4.0546875 7.25 C-6 9 -6 9 -8 9 C-8 8.34 -8 7.68 -8 7 C-7.34 7 -6.68 7 -6 7 C-5.67 6.01 -5.34 5.02 -5 4 C-3.37667033 2.61423077 -1.71275535 1.27358732 0 0 Z " fill="#0F382D" transform="translate(238,244)"/>
<path d="M0 0 C0.66 0.66 1.32 1.32 2 2 C-1.465 4.97 -1.465 4.97 -5 8 C-5 5 -5 5 -2.5 2.3125 C-1.675 1.549375 -0.85 0.78625 0 0 Z " fill="#1A4A3E" transform="translate(229,252)"/>
<path d="M0 0 C2.96404505 2.80804268 5.44499019 5.18315774 7 9 C1.21538462 4.56923077 1.21538462 4.56923077 0.125 1.6875 C0.08375 1.130625 0.0425 0.57375 0 0 Z " fill="#C91F12" transform="translate(572,799)"/>
<path d="M0 0 C1.98362069 2.91708924 1.9876191 4.12380904 1.625 7.75 C1.41875 8.8225 1.2125 9.895 1 11 C-1.78637633 6.8204355 -0.79562512 4.85331323 0 0 Z " fill="#CD3426" transform="translate(542,665)"/>
<path d="M0 0 C3.3 0 6.6 0 10 0 C10 0.33 10 0.66 10 1 C6.7 1 3.4 1 0 1 C0 0.67 0 0.34 0 0 Z " fill="#2E6153" transform="translate(452,863)"/>
<path d="M0 0 C0.99 0.495 0.99 0.495 2 1 C1.67 1.66 1.34 2.32 1 3 C0.67 2.01 0.34 1.02 0 0 Z " fill="#C64E3F" transform="translate(562,789)"/>
<path d="M0 0 C0.99 0.33 1.98 0.66 3 1 C2.01 1 1.02 1 0 1 C0 0.67 0 0.34 0 0 Z " fill="#DA4D40" transform="translate(760,742)"/>
<path d="M0 0 C1.485 0.99 1.485 0.99 3 2 C2.01 2 1.02 2 0 2 C0 1.34 0 0.68 0 0 Z " fill="#D74D3E" transform="translate(640,622)"/>
<path d="M0 0 C0.66 0.66 1.32 1.32 2 2 C1.01 1.67 0.02 1.34 -1 1 C-0.67 0.67 -0.34 0.34 0 0 Z " fill="#316F5F" transform="translate(398,520)"/>
<path d="M0 0 C0.99 0.33 1.98 0.66 3 1 C2.01 1 1.02 1 0 1 C0 0.67 0 0.34 0 0 Z " fill="#326E5F" transform="translate(441,520)"/>
<path d="M0 0 C0.99 0 1.98 0 3 0 C2.67 0.66 2.34 1.32 2 2 C1.34 1.34 0.68 0.68 0 0 Z " fill="#316F60" transform="translate(421,520)"/>
<path d="M0 0 C1 4 1 4 1 4 Z " fill="#2F6457" transform="translate(139,436)"/>
<path d="M0 0 C3 1 3 1 3 1 Z " fill="#2B6052" transform="translate(447,863)"/>
<path d="M0 0 C0.99 0.495 0.99 0.495 2 1 C1.01 1.495 1.01 1.495 0 2 C0 1.34 0 0.68 0 0 Z " fill="#DA4E40" transform="translate(745,726)"/>
<path d="" fill="#BE5144" transform="translate(0,0)"/>
<path d="" fill="#C05144" transform="translate(0,0)"/>
<path d="" fill="#2F6759" transform="translate(0,0)"/>
<path d="M0 0 C0.66 0.66 1.32 1.32 2 2 C1.34 2 0.68 2 0 2 C0 1.34 0 0.68 0 0 Z " fill="#DE4C3F" transform="translate(777,627)"/>
<path d="M0 0 C3 1 3 1 3 1 Z " fill="#DD4C3F" transform="translate(634,621)"/>
<path d="" fill="#2D6658" transform="translate(0,0)"/>
<path d="M0 0 C3 1 3 1 3 1 Z " fill="#CA4D40" transform="translate(749,544)"/>
<path d="M0 0 C0.99 0.495 0.99 0.495 2 1 C1.01 1.495 1.01 1.495 0 2 C0 1.34 0 0.68 0 0 Z " fill="#326D5E" transform="translate(469,520)"/>
<path d="M0 0 C0.66 0 1.32 0 2 0 C1.67 0.66 1.34 1.32 1 2 C0.67 1.34 0.34 0.68 0 0 Z " fill="#306356" transform="translate(186,493)"/>
<path d="M0 0 C3 1 3 1 3 1 Z " fill="#2D6457" transform="translate(549,176)"/>
<path d="M0 0 C3 1 3 1 3 1 Z " fill="#2B6556" transform="translate(518,168)"/>
<path d="M0 0 C3 1 3 1 3 1 Z " fill="#2E6B5C" transform="translate(384,168)"/>
<path d="M0 0 C2 1 2 1 2 1 Z " fill="#2C6053" transform="translate(444,863)"/>
<path d="M0 0 C2 1 2 1 2 1 Z " fill="#2F6153" transform="translate(467,862)"/>
<path d="M0 0 C2 1 2 1 2 1 Z " fill="#2D6053" transform="translate(435,862)"/>
<path d="M0 0 C2 1 2 1 2 1 Z " fill="#2E6355" transform="translate(432,862)"/>
<path d="M0 0 C2 1 2 1 2 1 Z " fill="#316153" transform="translate(474,861)"/>
<path d="M0 0 C2 1 2 1 2 1 Z " fill="#2C6151" transform="translate(404,854)"/>
<path d="M0 0 C2 1 2 1 2 1 Z " fill="#2D6354" transform="translate(402,853)"/>
<path d="M0 0 C2 1 2 1 2 1 Z " fill="#CC4E40" transform="translate(624,847)"/>
<path d="M0 0 C2 1 2 1 2 1 Z " fill="#C74F40" transform="translate(580,814)"/>
<path d="M0 0 C2 1 2 1 2 1 Z " fill="#C84E40" transform="translate(579,812)"/>
<path d="M0 0 C2 1 2 1 2 1 Z " fill="#506253" transform="translate(542,808)"/>
<path d="" fill="#DC4E40" transform="translate(0,0)"/>
<path d="" fill="#CA493B" transform="translate(0,0)"/>
<path d="" fill="#C24F40" transform="translate(0,0)"/>
<path d="" fill="#2E6556" transform="translate(0,0)"/>
<path d="" fill="#516556" transform="translate(0,0)"/>
<path d="M0 0 C2 1 2 1 2 1 Z " fill="#DD4E3F" transform="translate(768,749)"/>
<path d="" fill="#536658" transform="translate(0,0)"/>
<path d="" fill="#BD5244" transform="translate(0,0)"/>
<path d="" fill="#4A6558" transform="translate(0,0)"/>
<path d="" fill="#D95043" transform="translate(0,0)"/>
<path d="M0 0 C2 1 2 1 2 1 Z " fill="#DA5142" transform="translate(729,689)"/>
<path d="" fill="#C15446" transform="translate(0,0)"/>
<path d="" fill="#DA4D3F" transform="translate(0,0)"/>
<path d="M0 0 C2 1 2 1 2 1 Z " fill="#5B6355" transform="translate(517,663)"/>
<path d="" fill="#DC4F42" transform="translate(0,0)"/>
<path d="" fill="#DA5041" transform="translate(0,0)"/>
<path d="" fill="#DB4E3F" transform="translate(0,0)"/>
<path d="M0 0 C2 1 2 1 2 1 Z " fill="#DC4E3F" transform="translate(656,637)"/>
<path d="" fill="#2E6959" transform="translate(0,0)"/>
<path d="" fill="#556556" transform="translate(0,0)"/>
<path d="M0 0 C2 1 2 1 2 1 Z " fill="#D94E41" transform="translate(772,623)"/>
<path d="" fill="#CB493B" transform="translate(0,0)"/>
<path d="M0 0 C2 1 2 1 2 1 Z " fill="#C55144" transform="translate(604,568)"/>
<path d="" fill="#546657" transform="translate(0,0)"/>
<path d="M0 0 C2 1 2 1 2 1 Z " fill="#C75348" transform="translate(616,560)"/>
<path d="M0 0 C2 1 2 1 2 1 Z " fill="#CA5042" transform="translate(758,547)"/>
<path d="M0 0 C2 1 2 1 2 1 Z " fill="#C55042" transform="translate(648,544)"/>
<path d="M0 0 C2 1 2 1 2 1 Z " fill="#C55244" transform="translate(679,538)"/>
<path d="M0 0 C2 1 2 1 2 1 Z " fill="#C65245" transform="translate(716,537)"/>
<path d="" fill="#2D6758" transform="translate(0,0)"/>
<path d="M0 0 C2 1 2 1 2 1 Z " fill="#327060" transform="translate(446,521)"/>
<path d="M0 0 C2 1 2 1 2 1 Z " fill="#346D5E" transform="translate(520,520)"/>
<path d="M0 0 C2 1 2 1 2 1 Z " fill="#2F6156" transform="translate(192,495)"/>
<path d="" fill="#2F6557" transform="translate(0,0)"/>
<path d="" fill="#2E6456" transform="translate(0,0)"/>
<path d="" fill="#356053" transform="translate(0,0)"/>
<path d="" fill="#2F6859" transform="translate(0,0)"/>
<path d="" fill="#2D6154" transform="translate(0,0)"/>
<path d="M0 0 C2 1 2 1 2 1 Z " fill="#2E6656" transform="translate(730,312)"/>
<path d="" fill="#296153" transform="translate(0,0)"/>
<path d="" fill="#2B6153" transform="translate(0,0)"/>
<path d="M0 0 C2 1 2 1 2 1 Z " fill="#2D6659" transform="translate(297,200)"/>
<path d="" fill="#11201B" transform="translate(0,0)"/>
<path d="" fill="#CA4B3B" transform="translate(0,0)"/>
<path d="" fill="#D04C3B" transform="translate(0,0)"/>
<path d="" fill="#CA4E3E" transform="translate(0,0)"/>
<path d="" fill="#CE4C3D" transform="translate(0,0)"/>
<path d="" fill="#316053" transform="translate(0,0)"/>
<path d="" fill="#2B6253" transform="translate(0,0)"/>
<path d="" fill="#2F6354" transform="translate(0,0)"/>
<path d="" fill="#CE4C3C" transform="translate(0,0)"/>
<path d="" fill="#CE4C3D" transform="translate(0,0)"/>
<path d="" fill="#336253" transform="translate(0,0)"/>
<path d="" fill="#316052" transform="translate(0,0)"/>
<path d="" fill="#2C6252" transform="translate(0,0)"/>
<path d="" fill="#346351" transform="translate(0,0)"/>
<path d="" fill="#D14D3F" transform="translate(0,0)"/>
<path d="" fill="#356252" transform="translate(0,0)"/>
<path d="" fill="#326151" transform="translate(0,0)"/>
<path d="" fill="#2D6255" transform="translate(0,0)"/>
<path d="" fill="#2E6355" transform="translate(0,0)"/>
<path d="" fill="#366353" transform="translate(0,0)"/>
<path d="" fill="#CD4C3A" transform="translate(0,0)"/>
<path d="" fill="#D34C3C" transform="translate(0,0)"/>
<path d="" fill="#CC4F3E" transform="translate(0,0)"/>
<path d="" fill="#3D6354" transform="translate(0,0)"/>
<path d="" fill="#C74E40" transform="translate(0,0)"/>
<path d="" fill="#2C6053" transform="translate(0,0)"/>
<path d="" fill="#D14D3D" transform="translate(0,0)"/>
<path d="" fill="#2A6152" transform="translate(0,0)"/>
<path d="" fill="#CC4A3B" transform="translate(0,0)"/>
<path d="" fill="#CA4B3C" transform="translate(0,0)"/>
<path d="" fill="#2C5F51" transform="translate(0,0)"/>
<path d="" fill="#2A5F54" transform="translate(0,0)"/>
<path d="" fill="#6C5E50" transform="translate(0,0)"/>
<path d="" fill="#C74F40" transform="translate(0,0)"/>
<path d="" fill="#CA4E3F" transform="translate(0,0)"/>
<path d="" fill="#C9493B" transform="translate(0,0)"/>
<path d="" fill="#575D51" transform="translate(0,0)"/>
<path d="" fill="#CD483A" transform="translate(0,0)"/>
<path d="" fill="#CE4E40" transform="translate(0,0)"/>
<path d="" fill="#556152" transform="translate(0,0)"/>
<path d="" fill="#556355" transform="translate(0,0)"/>
<path d="" fill="#CC4839" transform="translate(0,0)"/>
<path d="" fill="#2C6256" transform="translate(0,0)"/>
<path d="" fill="#DD5041" transform="translate(0,0)"/>
<path d="" fill="#DC4F41" transform="translate(0,0)"/>
<path d="" fill="#BF5343" transform="translate(0,0)"/>
<path d="" fill="#DD4E43" transform="translate(0,0)"/>
<path d="" fill="#DE4E3F" transform="translate(0,0)"/>
<path d="" fill="#C9463A" transform="translate(0,0)"/>
<path d="" fill="#CF483B" transform="translate(0,0)"/>
<path d="" fill="#2E6355" transform="translate(0,0)"/>
<path d="" fill="#C74D41" transform="translate(0,0)"/>
<path d="" fill="#DD5242" transform="translate(0,0)"/>
<path d="" fill="#D95342" transform="translate(0,0)"/>
<path d="" fill="#C15143" transform="translate(0,0)"/>
<path d="" fill="#D95043" transform="translate(0,0)"/>
<path d="" fill="#BE5343" transform="translate(0,0)"/>
<path d="" fill="#CB4939" transform="translate(0,0)"/>
<path d="" fill="#DD4F42" transform="translate(0,0)"/>
<path d="" fill="#DA4E40" transform="translate(0,0)"/>
<path d="" fill="#DC503F" transform="translate(0,0)"/>
<path d="" fill="#D84C3F" transform="translate(0,0)"/>
<path d="" fill="#DD5040" transform="translate(0,0)"/>
<path d="" fill="#DB5043" transform="translate(0,0)"/>
<path d="" fill="#C3503F" transform="translate(0,0)"/>
<path d="" fill="#CB493A" transform="translate(0,0)"/>
<path d="" fill="#576456" transform="translate(0,0)"/>
<path d="" fill="#DE4D42" transform="translate(0,0)"/>
<path d="" fill="#496254" transform="translate(0,0)"/>
<path d="" fill="#AF5546" transform="translate(0,0)"/>
<path d="" fill="#DC4E3D" transform="translate(0,0)"/>
<path d="" fill="#D94D43" transform="translate(0,0)"/>
<path d="" fill="#DC4F40" transform="translate(0,0)"/>
<path d="" fill="#DC5141" transform="translate(0,0)"/>
<path d="" fill="#CB4A3B" transform="translate(0,0)"/>
<path d="" fill="#B85445" transform="translate(0,0)"/>
<path d="" fill="#BD5244" transform="translate(0,0)"/>
<path d="" fill="#BA5243" transform="translate(0,0)"/>
<path d="" fill="#D94F43" transform="translate(0,0)"/>
<path d="" fill="#BA5646" transform="translate(0,0)"/>
<path d="" fill="#C94A3F" transform="translate(0,0)"/>
<path d="" fill="#CA4B3E" transform="translate(0,0)"/>
<path d="" fill="#BC5043" transform="translate(0,0)"/>
<path d="" fill="#2D6758" transform="translate(0,0)"/>
<path d="" fill="#DC5144" transform="translate(0,0)"/>
<path d="" fill="#DD5242" transform="translate(0,0)"/>
<path d="" fill="#DB4F41" transform="translate(0,0)"/>
<path d="" fill="#486657" transform="translate(0,0)"/>
<path d="" fill="#DA5242" transform="translate(0,0)"/>
<path d="" fill="#4A6657" transform="translate(0,0)"/>
<path d="" fill="#476453" transform="translate(0,0)"/>
<path d="" fill="#DC5241" transform="translate(0,0)"/>
<path d="" fill="#DB5142" transform="translate(0,0)"/>
<path d="" fill="#DE4C3F" transform="translate(0,0)"/>
<path d="" fill="#D84F42" transform="translate(0,0)"/>
<path d="" fill="#2E6758" transform="translate(0,0)"/>
<path d="" fill="#CB4D3F" transform="translate(0,0)"/>
<path d="" fill="#DC5144" transform="translate(0,0)"/>
<path d="" fill="#DD5042" transform="translate(0,0)"/>
<path d="" fill="#CC4B3D" transform="translate(0,0)"/>
<path d="" fill="#CE4A3D" transform="translate(0,0)"/>
<path d="" fill="#DB4E3F" transform="translate(0,0)"/>
<path d="" fill="#DB4E3E" transform="translate(0,0)"/>
<path d="" fill="#BB5647" transform="translate(0,0)"/>
<path d="" fill="#C94B3E" transform="translate(0,0)"/>
<path d="" fill="#DE4F41" transform="translate(0,0)"/>
<path d="" fill="#D84E41" transform="translate(0,0)"/>
<path d="" fill="#C7493C" transform="translate(0,0)"/>
<path d="" fill="#D74C3E" transform="translate(0,0)"/>
<path d="" fill="#DD4F42" transform="translate(0,0)"/>
<path d="" fill="#DD4D40" transform="translate(0,0)"/>
<path d="" fill="#556556" transform="translate(0,0)"/>
<path d="" fill="#D94E43" transform="translate(0,0)"/>
<path d="" fill="#2E6759" transform="translate(0,0)"/>
<path d="" fill="#CF4E3F" transform="translate(0,0)"/>
<path d="" fill="#516154" transform="translate(0,0)"/>
<path d="" fill="#D84D40" transform="translate(0,0)"/>
<path d="" fill="#DD4D3F" transform="translate(0,0)"/>
<path d="" fill="#C25647" transform="translate(0,0)"/>
<path d="" fill="#DC4E43" transform="translate(0,0)"/>
<path d="" fill="#DC4F42" transform="translate(0,0)"/>
<path d="" fill="#D94E41" transform="translate(0,0)"/>
<path d="" fill="#CA4A3B" transform="translate(0,0)"/>
<path d="" fill="#D94E41" transform="translate(0,0)"/>
<path d="" fill="#DC4D41" transform="translate(0,0)"/>
<path d="" fill="#CB4B3C" transform="translate(0,0)"/>
<path d="" fill="#CA4D3C" transform="translate(0,0)"/>
<path d="" fill="#DC4D3F" transform="translate(0,0)"/>
<path d="" fill="#D74C3F" transform="translate(0,0)"/>
<path d="" fill="#596456" transform="translate(0,0)"/>
<path d="" fill="#DB4D3F" transform="translate(0,0)"/>
<path d="" fill="#DD4D40" transform="translate(0,0)"/>
<path d="" fill="#BF5443" transform="translate(0,0)"/>
<path d="" fill="#DE4E40" transform="translate(0,0)"/>
<path d="" fill="#E04F40" transform="translate(0,0)"/>
<path d="" fill="#DC4C3F" transform="translate(0,0)"/>
<path d="" fill="#BF5246" transform="translate(0,0)"/>
<path d="" fill="#BC5548" transform="translate(0,0)"/>
<path d="" fill="#566859" transform="translate(0,0)"/>
<path d="" fill="#BB5445" transform="translate(0,0)"/>
<path d="" fill="#546958" transform="translate(0,0)"/>
<path d="" fill="#CD4E3A" transform="translate(0,0)"/>
<path d="" fill="#C64936" transform="translate(0,0)"/>
<path d="" fill="#C25446" transform="translate(0,0)"/>
<path d="" fill="#C25546" transform="translate(0,0)"/>
<path d="" fill="#CE4A3C" transform="translate(0,0)"/>
<path d="" fill="#586359" transform="translate(0,0)"/>
<path d="" fill="#CF4738" transform="translate(0,0)"/>
<path d="" fill="#2E6856" transform="translate(0,0)"/>
<path d="" fill="#C84D41" transform="translate(0,0)"/>
<path d="" fill="#596657" transform="translate(0,0)"/>
<path d="" fill="#C45042" transform="translate(0,0)"/>
<path d="" fill="#C35345" transform="translate(0,0)"/>
<path d="" fill="#CC4D3B" transform="translate(0,0)"/>
<path d="" fill="#BF5348" transform="translate(0,0)"/>
<path d="" fill="#56675A" transform="translate(0,0)"/>
<path d="" fill="#CA4E40" transform="translate(0,0)"/>
<path d="" fill="#CC4A40" transform="translate(0,0)"/>
<path d="" fill="#CA4E40" transform="translate(0,0)"/>
<path d="" fill="#C55145" transform="translate(0,0)"/>
<path d="" fill="#CA5247" transform="translate(0,0)"/>
<path d="" fill="#C75045" transform="translate(0,0)"/>
<path d="" fill="#C55446" transform="translate(0,0)"/>
<path d="" fill="#C95444" transform="translate(0,0)"/>
<path d="" fill="#C85342" transform="translate(0,0)"/>
<path d="" fill="#C55446" transform="translate(0,0)"/>
<path d="" fill="#C65445" transform="translate(0,0)"/>
<path d="" fill="#C55146" transform="translate(0,0)"/>
<path d="" fill="#C65346" transform="translate(0,0)"/>
<path d="" fill="#C85447" transform="translate(0,0)"/>
<path d="" fill="#306959" transform="translate(0,0)"/>
<path d="" fill="#33705E" transform="translate(0,0)"/>
<path d="" fill="#35715D" transform="translate(0,0)"/>
<path d="" fill="#326F5F" transform="translate(0,0)"/>
<path d="" fill="#327162" transform="translate(0,0)"/>
<path d="" fill="#336E5E" transform="translate(0,0)"/>
<path d="" fill="#31705F" transform="translate(0,0)"/>
<path d="" fill="#346D60" transform="translate(0,0)"/>
<path d="" fill="#356D61" transform="translate(0,0)"/>
<path d="" fill="#326F60" transform="translate(0,0)"/>
<path d="" fill="#337261" transform="translate(0,0)"/>
<path d="" fill="#326E5E" transform="translate(0,0)"/>
<path d="" fill="#336F5E" transform="translate(0,0)"/>
<path d="" fill="#326F5F" transform="translate(0,0)"/>
<path d="" fill="#317060" transform="translate(0,0)"/>
<path d="" fill="#306C5E" transform="translate(0,0)"/>
<path d="" fill="#336E60" transform="translate(0,0)"/>
<path d="" fill="#337160" transform="translate(0,0)"/>
<path d="" fill="#316F5E" transform="translate(0,0)"/>
<path d="" fill="#337061" transform="translate(0,0)"/>
<path d="" fill="#327060" transform="translate(0,0)"/>
<path d="" fill="#347261" transform="translate(0,0)"/>
<path d="" fill="#317262" transform="translate(0,0)"/>
<path d="" fill="#316F61" transform="translate(0,0)"/>
<path d="" fill="#337163" transform="translate(0,0)"/>
<path d="" fill="#357061" transform="translate(0,0)"/>
<path d="" fill="#326D60" transform="translate(0,0)"/>
<path d="" fill="#336D5F" transform="translate(0,0)"/>
<path d="" fill="#346F5E" transform="translate(0,0)"/>
<path d="" fill="#326E60" transform="translate(0,0)"/>
<path d="" fill="#336C5F" transform="translate(0,0)"/>
<path d="" fill="#336C5E" transform="translate(0,0)"/>
<path d="" fill="#326C5F" transform="translate(0,0)"/>
<path d="" fill="#346E5F" transform="translate(0,0)"/>
<path d="" fill="#316F60" transform="translate(0,0)"/>
<path d="" fill="#346D5E" transform="translate(0,0)"/>
<path d="" fill="#326E60" transform="translate(0,0)"/>
<path d="" fill="#326E60" transform="translate(0,0)"/>
<path d="" fill="#336F5F" transform="translate(0,0)"/>
<path d="" fill="#326E61" transform="translate(0,0)"/>
<path d="" fill="#347060" transform="translate(0,0)"/>
<path d="" fill="#306556" transform="translate(0,0)"/>
<path d="" fill="#4A6358" transform="translate(0,0)"/>
<path d="" fill="#3E6354" transform="translate(0,0)"/>
<path d="" fill="#2F6456" transform="translate(0,0)"/>
<path d="" fill="#416456" transform="translate(0,0)"/>
<path d="" fill="#326658" transform="translate(0,0)"/>
<path d="" fill="#306357" transform="translate(0,0)"/>
<path d="" fill="#3B6352" transform="translate(0,0)"/>
<path d="" fill="#2C6456" transform="translate(0,0)"/>
<path d="" fill="#2E6455" transform="translate(0,0)"/>
<path d="" fill="#2D6556" transform="translate(0,0)"/>
<path d="" fill="#336253" transform="translate(0,0)"/>
<path d="" fill="#316356" transform="translate(0,0)"/>
<path d="" fill="#315F52" transform="translate(0,0)"/>
<path d="" fill="#306355" transform="translate(0,0)"/>
<path d="" fill="#2F6757" transform="translate(0,0)"/>
<path d="" fill="#2F6659" transform="translate(0,0)"/>
<path d="" fill="#2C6757" transform="translate(0,0)"/>
<path d="" fill="#30675A" transform="translate(0,0)"/>
<path d="" fill="#2B6558" transform="translate(0,0)"/>
<path d="" fill="#31665C" transform="translate(0,0)"/>
<path d="" fill="#2E6559" transform="translate(0,0)"/>
<path d="" fill="#2C6558" transform="translate(0,0)"/>
<path d="" fill="#2D6559" transform="translate(0,0)"/>
<path d="" fill="#2D6557" transform="translate(0,0)"/>
<path d="" fill="#2C6157" transform="translate(0,0)"/>
<path d="" fill="#2D6456" transform="translate(0,0)"/>
<path d="" fill="#2E6558" transform="translate(0,0)"/>
<path d="" fill="#2B6757" transform="translate(0,0)"/>
<path d="" fill="#2C6758" transform="translate(0,0)"/>
<path d="" fill="#2F6557" transform="translate(0,0)"/>
<path d="" fill="#2B6253" transform="translate(0,0)"/>
<path d="" fill="#2F6356" transform="translate(0,0)"/>
<path d="" fill="#2D685A" transform="translate(0,0)"/>
<path d="" fill="#296557" transform="translate(0,0)"/>
<path d="" fill="#2B6457" transform="translate(0,0)"/>
<path d="" fill="#2A6655" transform="translate(0,0)"/>
<path d="" fill="#2C6556" transform="translate(0,0)"/>
<path d="" fill="#286254" transform="translate(0,0)"/>
<path d="" fill="#2A6656" transform="translate(0,0)"/>
<path d="" fill="#2B6254" transform="translate(0,0)"/>
<path d="" fill="#2C6657" transform="translate(0,0)"/>
<path d="" fill="#2B6455" transform="translate(0,0)"/>
<path d="" fill="#2C6757" transform="translate(0,0)"/>
<path d="" fill="#2B6457" transform="translate(0,0)"/>
<path d="" fill="#296454" transform="translate(0,0)"/>
<path d="" fill="#2A6557" transform="translate(0,0)"/>
<path d="" fill="#2A6556" transform="translate(0,0)"/>
<path d="" fill="#2A6354" transform="translate(0,0)"/>
<path d="" fill="#2B6254" transform="translate(0,0)"/>
<path d="" fill="#2C6859" transform="translate(0,0)"/>
<path d="" fill="#2B6154" transform="translate(0,0)"/>
<path d="" fill="#2A6758" transform="translate(0,0)"/>
<path d="" fill="#2F675B" transform="translate(0,0)"/>
<path d="" fill="#2B6655" transform="translate(0,0)"/>
<path d="" fill="#2D6456" transform="translate(0,0)"/>
<path d="" fill="#2A6354" transform="translate(0,0)"/>
<path d="" fill="#2C6658" transform="translate(0,0)"/>
<path d="" fill="#2A6453" transform="translate(0,0)"/>
<path d="" fill="#2C6553" transform="translate(0,0)"/>
<path d="" fill="#2D6758" transform="translate(0,0)"/>
<path d="" fill="#2D6759" transform="translate(0,0)"/>
<path d="" fill="#2D6455" transform="translate(0,0)"/>
<path d="" fill="#2C6859" transform="translate(0,0)"/>
<path d="" fill="#2C6659" transform="translate(0,0)"/>
<path d="" fill="#2D665B" transform="translate(0,0)"/>
<path d="" fill="#2B6456" transform="translate(0,0)"/>
<path d="" fill="#2C6859" transform="translate(0,0)"/>
<path d="" fill="#2D6455" transform="translate(0,0)"/>
<path d="" fill="#2F685A" transform="translate(0,0)"/>
<path d="" fill="#2E6858" transform="translate(0,0)"/>
<path d="" fill="#2E6B5B" transform="translate(0,0)"/>
<path d="" fill="#2D6959" transform="translate(0,0)"/>
<path d="" fill="#2D6758" transform="translate(0,0)"/>
<path d="" fill="#2E6758" transform="translate(0,0)"/>
<path d="" fill="#2A6958" transform="translate(0,0)"/>
<path d="" fill="#2C6758" transform="translate(0,0)"/>
<path d="" fill="#2B6759" transform="translate(0,0)"/>
<path d="" fill="#2D695A" transform="translate(0,0)"/>
<path d="" fill="#2D695A" transform="translate(0,0)"/>
<path d="" fill="#2C6A5C" transform="translate(0,0)"/>
</svg>
